M48
INCH
T01C0.019
T02C0.0354
T03C0.038
T04C0.0394
T05C0.0591
T06C0.0709
T07C0.0728
T08C0.1181
%
T01
X+010631Y+034379
X+010663Y+035321
X+011215Y+035385
X+011637Y+036392
X+011540Y+036977
X+013132Y+038698
X+014138Y+038406
X+014626Y+038958
X+015990Y+038958
X+016185Y+038406
X+018134Y+037399
X+019465Y+039381
X+020277Y+041394
X+020277Y+042466
X+020277Y+043018
X+021771Y+043798
X+020699Y+045877
X+019855Y+045389
X+018523Y+046559
X+016282Y+046169
X+015145Y+046169
X+014431Y+046104
X+014431Y+045292
X+014009Y+044350
X+015275Y+043343
X+015633Y+042791
X+016120Y+041394
X+014626Y+041589
X+014138Y+041979
X+013132Y+042369
X+011637Y+045292
X+011637Y+046104
X+010793Y+046656
X+009526Y+046656
X+009721Y+047955
X+011637Y+047955
X+012157Y+048345
X+013197Y+048767
X+013197Y+046981
X+015145Y+049190
X+013651Y+050814
X+017711Y+051301
X+019400Y+052308
X+020537Y+051821
X+022616Y+052568
X+023525Y+052568
X+026643Y+052990
X+026124Y+050067
X+025442Y+048962
X+024922Y+048150
X+024922Y+047306
X+025474Y+047208
X+025474Y+046396
X+027098Y+045877
X+027943Y+047338
X+027520Y+047728
X+028170Y+048962
X+030963Y+049352
X+031483Y+050489
X+032847Y+050489
X+033237Y+049969
X+032587Y+047306
X+032165Y+045422
X+033497Y+043376
X+032035Y+042401
X+033659Y+040420
X+033204Y+039900
X+032815Y+039381
X+032035Y+037886
X+034341Y+037886
X+034763Y+036392
X+034341Y+035450
X+035381Y+034898
X+036647Y+034898
X+038434Y+034898
X+038986Y+035483
X+038434Y+033891
X+038044Y+031390
X+037037Y+031131
X+034763Y+029247
X+034341Y+028857
X+033562Y+028045
X+031613Y+028045
X+030541Y+028435
X+030541Y+025349
X+031905Y+022491
X+032457Y+021289
X+031905Y+020282
X+030119Y+020899
X+029274Y+019405
X+027683Y+020899
X+028105Y+021906
X+028105Y+022886
X+025864Y+025739
X+024337Y+027720
X+023525Y+027330
X+024175Y+030059
X+023493Y+030481
X+022194Y+030741
X+020797Y+031358
X+020245Y+031390
X+019855Y+031975
X+020667Y+032397
X+021219Y+033437
X+021479Y+034314
X+020927Y+034801
X+021089Y+035905
X+019465Y+035288
X+019043Y+034801
X+019433Y+034314
X+018783Y+033437
X+018523Y+032820
X+015568Y+033404
X+013132Y+033924
X+014106Y+030319
X+011605Y+028402
X+010533Y+027330
X+009624Y+027330
X+008130Y+027330
X+008130Y+027883
X+008130Y+030156
X+010533Y+029929
X+010143Y+025122
X+008779Y+025122
X+008779Y+022881
X+010566Y+023563
X+011508Y+022328
X+012709Y+024829
X+013651Y+024829
X+015633Y+024829
X+016997Y+025089
X+016997Y+023563
X+015048Y+022328
X+014593Y+018821
X+014528Y+017911
X+014691Y+016579
X+014723Y+014371
X+011897Y+017911
X+011508Y+018333
X+009884Y+017911
X+008649Y+015183
X+009039Y+014760
X+006830Y+015345
X+006408Y+014501
X+006018Y+018333
X+005596Y+018821
X+006830Y+021029
X+015633Y+018821
X+016542Y+018821
X+018101Y+017781
X+022616Y+017391
X+023103Y+021906
X+022583Y+023140
X+019920Y+025739
X+020342Y+026161
X+018036Y+028272
X+016120Y+027330
X+023525Y+033697
X+023265Y+034314
X+024597Y+035288
X+025442Y+034314
X+025831Y+034736
X+025442Y+033697
X+025019Y+033177
X+025409Y+032755
X+024597Y+032430
X+026708Y+033274
X+026286Y+030448
X+026708Y+029799
X+029437Y+031813
X+029956Y+032235
X+030379Y+033047
X+031645Y+032235
X+032457Y+032917
X+034341Y+033891
X+032198Y+035450
X+031645Y+034898
X+030379Y+034898
X+029956Y+035385
X+029274Y+035385
X+026936Y+037399
X+027455Y+038893
X+027878Y+039478
X+026936Y+039900
X+026091Y+040875
X+026513Y+041719
X+026936Y+041297
X+023948Y+042141
X+021771Y+040355
X+021771Y+037886
X+024337Y+037562
X+024500Y+038796
X+025344Y+036425
X+018523Y+043213
X+021771Y+047923
X+021349Y+048345
X+019823Y+048897
X+024077Y+049385
X+034698Y+047306
X+035933Y+048930
X+038564Y+049969
X+039506Y+049774
X+040545Y+049774
X+040545Y+050814
X+041357Y+050814
X+041617Y+049352
X+042754Y+049612
X+042754Y+048800
X+043598Y+048313
X+041519Y+047890
X+042201Y+045877
X+044508Y+045877
X+044605Y+044383
X+044215Y+043895
X+045157Y+042888
X+044702Y+041882
X+046749Y+043895
X+049704Y+043376
X+050224Y+042888
X+051621Y+042304
X+050614Y+041394
X+051134Y+044383
X+050224Y+045389
X+050874Y+046916
X+052043Y+047403
X+052563Y+047923
X+052173Y+048410
X+053375Y+046916
X+055583Y+045877
X+056135Y+049287
X+055583Y+049612
X+057337Y+050294
X+057727Y+050716
X+057077Y+051138
X+059091Y+051138
X+058766Y+049287
X+060845Y+046819
X+062502Y+045389
X+062859Y+044415
X+063379Y+043408
X+063379Y+042401
X+063249Y+041264
X+061300Y+040290
X+061625Y+039478
X+060715Y+039413
X+060033Y+041264
X+058896Y+038406
X+060066Y+036977
X+060715Y+037399
X+062534Y+037399
X+063249Y+038406
X+063509Y+035905
X+062112Y+035905
X+063768Y+034314
X+064158Y+033404
X+063833Y+032397
X+063444Y+031293
X+062047Y+031293
X+062047Y+030319
X+061073Y+030319
X+061073Y+029279
X+061625Y+029279
X+059838Y+029409
X+061073Y+031390
X+058766Y+034314
X+056103Y+034346
X+055291Y+033794
X+055323Y+032820
X+055291Y+034898
X+053472Y+036815
X+053667Y+037886
X+053472Y+038893
X+056103Y+038536
X+056525Y+037854
X+051621Y+036815
X+051621Y+035873
X+051621Y+033826
X+051004Y+032755
X+048633Y+032755
X+047528Y+032917
X+045027Y+031423
X+044475Y+031390
X+043403Y+031813
X+043013Y+032657
X+044475Y+032657
X+044313Y+033469
X+043825Y+034314
X+044215Y+035385
X+043046Y+035385
X+041519Y+033891
X+041130Y+034314
X+041130Y+033469
X+042201Y+037399
X+044248Y+038926
X+047138Y+037302
X+047301Y+035873
X+049055Y+037464
X+048633Y+038861
X+041130Y+042888
X+038661Y+039381
X+039018Y+037886
X+038856Y+037302
X+035965Y+038893
X+035056Y+040420
X+035543Y+043798
X+036647Y+044902
X+037882Y+046299
X+038759Y+047890
X+039441Y+051821
X+035543Y+051821
X+047236Y+047890
X+051036Y+050229
X+052303Y+051138
X+060845Y+051950
X+064483Y+051138
X+063931Y+049287
X+063476Y+047403
X+063086Y+046396
X+069128Y+038406
X+068998Y+037399
X+068965Y+036815
X+067146Y+034411
X+068575Y+033404
X+071953Y+036392
X+079294Y+033891
X+079684Y+032917
X+082639Y+029766
X+082899Y+028077
X+083322Y+040290
X+062079Y+023887
X+055681Y+022978
X+055031Y+024894
X+054641Y+025739
X+054771Y+026583
X+055843Y+026161
X+053927Y+028045
X+051946Y+028467
X+050451Y+029149
X+049380Y+029539
X+048957Y+030319
X+048535Y+029929
X+047333Y+028045
X+049315Y+026876
X+049315Y+026291
X+049315Y+025674
X+050386Y+026876
X+051134Y+025674
X+050906Y+025122
X+051556Y+024050
X+053115Y+025739
X+052368Y+021874
X+054609Y+019892
X+056103Y+019892
X+057142Y+017294
X+056103Y+015475
X+056525Y+014858
X+054771Y+014858
X+054869Y+015832
X+053667Y+016904
X+051621Y+015832
X+051069Y+015832
X+049120Y+015832
X+048665Y+015443
X+046164Y+014371
X+048535Y+011902
X+050386Y+010311
X+048470Y+008394
X+046651Y+008914
X+045547Y+009888
X+042461Y+013299
X+039765Y+017099
X+037849Y+016644
X+036550Y+016644
X+037037Y+017911
X+033204Y+017651
X+032912Y+016417
X+029697Y+016807
X+026838Y+013396
X+028105Y+009986
X+030119Y+009401
X+030379Y+011805
X+035413Y+011805
X+036777Y+012909
X+038239Y+010895
X+039765Y+009401
X+040448Y+007810
X+032652Y+007030
X+032133Y+005504
X+027260Y+005081
X+040675Y+019892
X+042819Y+020412
X+042559Y+022816
X+041779Y+023303
X+041552Y+024115
X+040025Y+023725
X+040025Y+022913
X+040448Y+022296
X+038271Y+022296
X+036777Y+022881
X+036128Y+028045
X+053050Y+031423
X+055323Y+029961
X+053667Y+013299
X+054771Y+011902
X+055681Y+011285
X+056103Y+010278
X+056525Y+009888
X+055713Y+012487
X+054641Y+007875
X+052075Y+006478
X+051653Y+007875
X+049769Y+006900
X+058052Y+005504
X+059026Y+005081
X+060131Y+005504
X+063151Y+006446
X+063573Y+005893
X+061105Y+009401
X+060131Y+010506
X+063151Y+010311
X+063996Y+010311
X+072473Y+009953
X+077995Y+010311
X+005986Y+009986
X+008130Y+035385
X+009266Y+037886
X+009526Y+038828
X+009721Y+042044
X+005596Y+047566
X+006018Y+047955
X+006863Y+051301
X+006441Y+051723
X+005596Y+052113
T02
X+007633Y+039896
X+008633Y+039896
X+008633Y+040896
X+009633Y+040896
X+010633Y+040896
X+010633Y+039896
X+009633Y+039896
X+008633Y+038896
X+007633Y+038896
X+007633Y+037896
X+008633Y+037896
X+008633Y+036896
X+007633Y+036896
X+007633Y+035896
X+008633Y+035896
X+008633Y+034896
X+007633Y+034896
X+007633Y+033896
X+008633Y+033896
X+008633Y+032896
X+007633Y+032896
X+007633Y+031896
X+008633Y+031896
X+008633Y+030896
X+009633Y+030896
X+010633Y+030896
X+010633Y+031896
X+009633Y+031896
X+011633Y+031896
X+012633Y+031896
X+013633Y+031896
X+013633Y+030896
X+012633Y+030896
X+011633Y+030896
X+014633Y+030896
X+015633Y+030896
X+015633Y+031896
X+014633Y+031896
X+016633Y+031896
X+017633Y+031896
X+017633Y+032896
X+016633Y+032896
X+016633Y+033896
X+017633Y+033896
X+017633Y+034896
X+016633Y+034896
X+016633Y+035896
X+017633Y+035896
X+017633Y+036896
X+016633Y+036896
X+016633Y+037896
X+017633Y+037896
X+017633Y+038896
X+016633Y+038896
X+016633Y+039896
X+017633Y+039896
X+016633Y+040896
X+015633Y+040896
X+014633Y+040896
X+014633Y+039896
X+015633Y+039896
X+013633Y+039896
X+012633Y+039896
X+011633Y+039896
X+011633Y+040896
X+012633Y+040896
X+013633Y+040896
X+014633Y+043896
X+014633Y+046896
X+015133Y+049904
X+016133Y+049904
X+014133Y+049904
X+013133Y+049904
X+012133Y+049904
X+011133Y+049904
X+010133Y+049904
X+010133Y+052896
X+011133Y+052896
X+012133Y+052896
X+013133Y+052896
X+014133Y+052896
X+015133Y+052896
X+016133Y+052896
X+022633Y+048396
X+022633Y+047396
X+022633Y+046396
X+022633Y+045396
X+022633Y+044396
X+022633Y+043396
X+022633Y+042396
X+022633Y+041396
X+022633Y+040396
X+022633Y+039396
X+022633Y+038396
X+022633Y+037396
X+022633Y+036396
X+022633Y+035396
X+022633Y+034396
X+022633Y+033396
X+028617Y+033396
X+028617Y+034396
X+028617Y+035396
X+028617Y+036396
X+028617Y+037396
X+028617Y+038396
X+028617Y+039396
X+028617Y+040396
X+028617Y+041396
X+028617Y+042396
X+028617Y+043396
X+028617Y+044396
X+028617Y+045396
X+028617Y+046396
X+028617Y+047396
X+028617Y+048396
X+031133Y+048396
X+031133Y+047396
X+031133Y+046396
X+031133Y+045396
X+031133Y+044396
X+031133Y+043396
X+031133Y+042396
X+031133Y+041396
X+031133Y+040396
X+031133Y+039396
X+031133Y+038396
X+031133Y+037396
X+031133Y+036396
X+031133Y+035396
X+031133Y+034396
X+031133Y+033396
X+037117Y+033396
X+037117Y+034396
X+037117Y+035396
X+037117Y+036396
X+037117Y+037396
X+037117Y+038396
X+037117Y+039396
X+037117Y+040396
X+037117Y+041396
X+037117Y+042396
X+037117Y+043396
X+037117Y+044396
X+037117Y+045396
X+037117Y+046396
X+037117Y+047396
X+037117Y+048396
X+039633Y+048396
X+039633Y+047396
X+039633Y+046396
X+039633Y+045396
X+039633Y+044396
X+039633Y+043396
X+039633Y+042396
X+039633Y+041396
X+039633Y+040396
X+039633Y+039396
X+039633Y+038396
X+039633Y+037396
X+039633Y+036396
X+039633Y+035396
X+039633Y+034396
X+039633Y+033396
X+045617Y+033396
X+045617Y+034396
X+045617Y+035396
X+045617Y+036396
X+045617Y+037396
X+045617Y+038396
X+045617Y+039396
X+045617Y+040396
X+045617Y+041396
X+045617Y+042396
X+045617Y+043396
X+045617Y+044396
X+045617Y+045396
X+045617Y+046396
X+045617Y+047396
X+045617Y+048396
X+048133Y+048396
X+048133Y+047396
X+048133Y+046396
X+048133Y+045396
X+048133Y+044396
X+048133Y+043396
X+048133Y+042396
X+048133Y+041396
X+048133Y+040396
X+048133Y+039396
X+048133Y+038396
X+048133Y+037396
X+048133Y+036396
X+048133Y+035396
X+048133Y+034396
X+048133Y+033396
X+054117Y+033396
X+054117Y+034396
X+054117Y+035396
X+054117Y+036396
X+054117Y+037396
X+054117Y+038396
X+054117Y+039396
X+054117Y+040396
X+054117Y+041396
X+054117Y+042396
X+054117Y+043396
X+054117Y+044396
X+054117Y+045396
X+054117Y+046396
X+054117Y+047396
X+054117Y+048396
X+054125Y+023396
X+054125Y+022396
X+054125Y+021396
X+054125Y+020396
X+054125Y+019396
X+054125Y+018396
X+054125Y+017396
X+051133Y+017396
X+051133Y+018396
X+051133Y+019396
X+051133Y+020396
X+051133Y+021396
X+051133Y+022396
X+051133Y+023396
X+049125Y+023396
X+049125Y+022396
X+049125Y+021396
X+049125Y+020396
X+049125Y+019396
X+049125Y+018396
X+049125Y+017396
X+046133Y+017396
X+046133Y+018396
X+046133Y+019396
X+046133Y+020396
X+046133Y+021396
X+046133Y+022396
X+046133Y+023396
X+044125Y+023396
X+044125Y+022396
X+044125Y+021396
X+044125Y+020396
X+044125Y+019396
X+044125Y+018396
X+044125Y+017396
X+041133Y+017396
X+041133Y+018396
X+041133Y+019396
X+041133Y+020396
X+041133Y+021396
X+041133Y+022396
X+041133Y+023396
X+039125Y+023396
X+039125Y+022396
X+039125Y+021396
X+039125Y+020396
X+039125Y+019396
X+039125Y+018396
X+039125Y+017396
X+036133Y+017396
X+036133Y+018396
X+036133Y+019396
X+036133Y+020396
X+036133Y+021396
X+036133Y+022396
X+036133Y+023396
X+034125Y+023396
X+034125Y+022396
X+034125Y+021396
X+034125Y+020396
X+034125Y+019396
X+034125Y+018396
X+034125Y+017396
X+034125Y+016396
X+031133Y+016396
X+031133Y+017396
X+031133Y+018396
X+031133Y+019396
X+031133Y+020396
X+031133Y+021396
X+031133Y+022396
X+031133Y+023396
X+025633Y+023396
X+020633Y+021396
X+020633Y+020396
X+020633Y+019396
X+020633Y+018396
X+017633Y+018396
X+017633Y+019396
X+017633Y+020396
X+017633Y+021396
X+016633Y+030896
X+008633Y+043896
X+008633Y+046896
X+036133Y+012896
X+036133Y+011896
X+036133Y+010896
X+036133Y+009896
X+036133Y+008896
X+036133Y+007896
X+036133Y+006896
X+036133Y+005896
X+039125Y+005896
X+039125Y+006896
X+039125Y+007896
X+039125Y+008896
X+039125Y+009896
X+039125Y+010896
X+039125Y+011896
X+039125Y+012896
X+041133Y+012396
X+041133Y+011396
X+041133Y+010396
X+041133Y+009396
X+041133Y+008396
X+041133Y+007396
X+041133Y+006396
X+044125Y+006396
X+044125Y+007396
X+044125Y+008396
X+044125Y+009396
X+044125Y+010396
X+044125Y+011396
X+044125Y+012396
X+046133Y+012396
X+046133Y+011396
X+046133Y+010396
X+046133Y+009396
X+046133Y+008396
X+046133Y+007396
X+046133Y+006396
X+049125Y+006396
X+049125Y+007396
X+049125Y+008396
X+049125Y+009396
X+049125Y+010396
X+049125Y+011396
X+049125Y+012396
X+051133Y+012396
X+051133Y+011396
X+051133Y+010396
X+051133Y+009396
X+051133Y+008396
X+051133Y+007396
X+051133Y+006396
X+054125Y+006396
X+054125Y+007396
X+054125Y+008396
X+054125Y+009396
X+054125Y+010396
X+054125Y+011396
X+054125Y+012396
T03
X+082133Y+049396
X+081133Y+049396
X+081133Y+048396
X+082133Y+048396
X+082133Y+047396
X+081133Y+047396
X+081133Y+046396
X+082133Y+046396
X+082133Y+045396
X+081133Y+045396
X+081133Y+044396
X+082133Y+044396
X+082133Y+043396
X+081133Y+043396
X+081133Y+042396
X+082133Y+042396
X+082133Y+041396
X+081133Y+041396
X+081133Y+040396
X+082133Y+040396
X+082133Y+039396
X+081133Y+039396
X+081133Y+038396
X+082133Y+038396
X+082133Y+037396
X+081133Y+037396
X+081133Y+036396
X+082133Y+036396
X+082133Y+035396
X+081133Y+035396
X+081133Y+034396
X+082133Y+034396
X+082133Y+033396
X+081133Y+033396
X+081133Y+032396
X+082133Y+032396
X+082133Y+031396
X+081133Y+031396
X+081133Y+030396
X+082133Y+030396
X+082133Y+025396
X+081133Y+025396
X+081133Y+024396
X+082133Y+024396
X+082133Y+023396
X+081133Y+023396
X+081133Y+022396
X+082133Y+022396
X+082133Y+021396
X+081133Y+021396
X+081133Y+016396
X+082133Y+016396
X+082133Y+015396
X+081133Y+015396
X+081133Y+014396
X+082133Y+014396
X+082133Y+013396
X+081133Y+013396
X+081133Y+012396
X+081133Y+011396
X+082133Y+011396
X+082133Y+012396
X+082133Y+010396
X+081133Y+010396
X+081133Y+009396
X+082133Y+009396
X+082133Y+008396
X+081133Y+008396
X+081133Y+007396
X+082133Y+007396
X+074133Y+007396
X+073133Y+007396
X+073133Y+008396
X+074133Y+008396
X+074133Y+009396
X+074133Y+010396
X+073133Y+010396
X+073133Y+009396
X+073133Y+011396
X+074133Y+011396
X+074133Y+012396
X+073133Y+012396
X+073133Y+013396
X+074133Y+013396
X+074133Y+014396
X+073133Y+014396
X+073133Y+015396
X+074133Y+015396
X+074133Y+016396
X+073133Y+016396
X+073133Y+021396
X+074133Y+021396
X+074133Y+022396
X+073133Y+022396
X+073133Y+023396
X+074133Y+023396
X+074133Y+024396
X+073133Y+024396
X+073133Y+025396
X+074133Y+025396
X+074133Y+030396
X+073133Y+030396
X+073133Y+031396
X+074133Y+031396
X+074133Y+032396
X+073133Y+032396
X+073133Y+033396
X+074133Y+033396
X+074133Y+034396
X+073133Y+034396
X+073133Y+035396
X+074133Y+035396
X+074133Y+036396
X+073133Y+036396
X+073133Y+037396
X+074133Y+037396
X+074133Y+038396
X+074133Y+039396
X+073133Y+039396
X+073133Y+038396
X+073133Y+040396
X+074133Y+040396
X+074133Y+041396
X+073133Y+041396
X+073133Y+042396
X+074133Y+042396
X+074133Y+043396
X+073133Y+043396
X+073133Y+044396
X+074133Y+044396
X+074133Y+045396
X+073133Y+045396
X+073133Y+046396
X+074133Y+046396
X+074133Y+047396
X+073133Y+047396
X+073133Y+048396
X+074133Y+048396
X+074133Y+049396
X+073133Y+049396
X+066133Y+049396
X+065133Y+049396
X+065133Y+048396
X+066133Y+048396
X+066133Y+047396
X+065133Y+047396
X+065133Y+046396
X+066133Y+046396
X+066133Y+045396
X+065133Y+045396
X+065133Y+044396
X+066133Y+044396
X+066133Y+043396
X+065133Y+043396
X+065133Y+042396
X+066133Y+042396
X+066133Y+041396
X+065133Y+041396
X+065133Y+040396
X+066133Y+040396
X+066133Y+039396
X+066133Y+038396
X+065133Y+038396
X+065133Y+039396
X+065133Y+037396
X+066133Y+037396
X+066133Y+036396
X+065133Y+036396
X+065133Y+035396
X+066133Y+035396
X+066133Y+034396
X+065133Y+034396
X+065133Y+033396
X+066133Y+033396
X+066133Y+032396
X+065133Y+032396
X+065133Y+031396
X+066133Y+031396
X+066133Y+030396
X+065133Y+030396
X+065133Y+025396
X+066133Y+025396
X+066133Y+024396
X+065133Y+024396
X+065133Y+023396
X+066133Y+023396
X+066133Y+022396
X+065133Y+022396
X+065133Y+021396
X+066133Y+021396
X+066133Y+016396
X+065133Y+016396
X+065133Y+015396
X+066133Y+015396
X+066133Y+014396
X+065133Y+014396
X+065133Y+013396
X+066133Y+013396
X+066133Y+012396
X+066133Y+011396
X+065133Y+011396
X+065133Y+012396
X+065133Y+010396
X+066133Y+010396
X+066133Y+009396
X+065133Y+009396
X+065133Y+008396
X+066133Y+008396
X+066133Y+007396
X+065133Y+007396
X+058133Y+007396
X+058133Y+008396
X+057133Y+008396
X+057133Y+007396
X+057133Y+009396
X+057133Y+010396
X+058133Y+010396
X+058133Y+009396
X+058133Y+011396
X+058133Y+012396
X+057133Y+012396
X+057133Y+011396
X+057133Y+013396
X+058133Y+013396
X+058133Y+014396
X+057133Y+014396
X+057133Y+015396
X+058133Y+015396
X+058133Y+016396
X+057133Y+016396
X+057133Y+021396
X+058133Y+021396
X+058133Y+022396
X+057133Y+022396
X+057133Y+023396
X+058133Y+023396
X+058133Y+024396
X+057133Y+024396
X+057133Y+025396
X+058133Y+025396
X+058133Y+030396
X+057133Y+030396
X+057133Y+031396
X+058133Y+031396
X+058133Y+032396
X+057133Y+032396
X+057133Y+033396
X+058133Y+033396
X+058133Y+034396
X+057133Y+034396
X+057133Y+035396
X+058133Y+035396
X+058133Y+036396
X+057133Y+036396
X+057133Y+037396
X+058133Y+037396
X+058133Y+038396
X+058133Y+039396
X+057133Y+039396
X+057133Y+038396
X+057133Y+040396
X+058133Y+040396
X+058133Y+041396
X+057133Y+041396
X+057133Y+042396
X+058133Y+042396
X+058133Y+043396
X+057133Y+043396
X+057133Y+044396
X+058133Y+044396
X+058133Y+045396
X+057133Y+045396
X+057133Y+046396
X+058133Y+046396
X+058133Y+047396
X+057133Y+047396
X+057133Y+048396
X+058133Y+048396
X+058133Y+049396
X+057133Y+049396
T04
X+018633Y+044896
X+018633Y+045896
X+018636Y+050900
X+018636Y+051900
X+025133Y+050896
X+026133Y+050896
X+033633Y+050896
X+034633Y+050896
X+042133Y+050896
X+043133Y+050896
X+050633Y+050896
X+051633Y+050896
X+051133Y+029896
X+052633Y+029896
X+054133Y+029896
X+054133Y+026896
X+052633Y+026896
X+051133Y+026896
X+048133Y+025896
X+047133Y+025896
X+043133Y+025896
X+042133Y+025896
X+038133Y+025896
X+037133Y+025896
X+033133Y+025896
X+032133Y+025896
X+028625Y+023396
X+028625Y+022396
X+028625Y+021396
X+028625Y+020396
X+028625Y+019396
X+028625Y+018396
X+028625Y+017396
X+025633Y+017396
X+025633Y+018396
X+025633Y+019396
X+025633Y+020396
X+025633Y+021396
X+025633Y+022396
X+022633Y+021396
X+020633Y+023396
X+017633Y+023396
X+017133Y+025896
X+015633Y+025896
X+014133Y+025896
X+012633Y+025896
X+011133Y+025896
X+009633Y+025896
X+008133Y+025896
X+008133Y+028896
X+009633Y+028896
X+011133Y+028896
X+012633Y+028896
X+014133Y+028896
X+015633Y+028896
X+017133Y+028896
X+018633Y+028896
X+018633Y+025896
X+015633Y+021396
X+015633Y+020396
X+015633Y+017396
X+015633Y+016396
X+013133Y+016396
X+013133Y+017396
X+010633Y+017396
X+010633Y+016396
X+008133Y+016396
X+008133Y+017396
X+018633Y+016396
X+019633Y+016396
X+022633Y+018396
X+026633Y+025896
X+027633Y+025896
X+025633Y+027896
X+025633Y+030896
X+030133Y+012396
X+030133Y+010396
X+030133Y+008396
X+030133Y+006396
X+033133Y+006396
X+033133Y+008396
X+033133Y+010396
X+033133Y+012396
X+037133Y+014896
X+038133Y+014896
X+042133Y+014896
X+043133Y+014896
X+047133Y+014896
X+048133Y+014896
X+052133Y+014896
X+053133Y+014896
X+008133Y+049896
X+008133Y+052896
T05
X+009678Y+021942
X+007587Y+021942
T06
X+025633Y+011396
X+023979Y+011396
X+022325Y+011396
X+020672Y+011396
X+019018Y+011396
X+017365Y+011396
X+015711Y+011396
X+014058Y+011396
X+012404Y+011396
X+010751Y+011396
X+009097Y+011396
X+007444Y+011396
X+007444Y+013562
X+009097Y+013562
X+010751Y+013562
X+012404Y+013562
X+014058Y+013562
X+015711Y+013562
X+017365Y+013562
X+019018Y+013562
X+020672Y+013562
X+022325Y+013562
X+023979Y+013562
X+025633Y+013562
T07
X+036133Y+029396
X+037983Y+029396
X+039833Y+029396
X+043633Y+029396
X+045483Y+029396
X+047333Y+029396
X+032333Y+029396
X+030483Y+029396
X+028633Y+029396
T08
X+007444Y+008522
X+025633Y+008522
T00
M30
