G04 DipTrace 2.3.1.0*
%INTop.gbr*%
%MOIN*%
%ADD13C,0.013*%
%ADD15C,0.063*%
%ADD16R,0.063X0.063*%
%ADD17R,0.122X0.122*%
%ADD18C,0.122*%
%ADD19C,0.06*%
%ADD20R,0.06X0.06*%
%ADD21C,0.0591*%
%ADD22C,0.0591*%
%ADD23R,0.1181X0.1181*%
%ADD24C,0.1181*%
%ADD25R,0.0591X0.0591*%
%ADD26C,0.04*%
%FSLAX44Y44*%
G04*
G70*
G90*
G75*
G01*
%LNTop*%
%LPD*%
X58133Y30396D2*
D13*
X58692Y29837D1*
X65573D1*
X66133Y30396D1*
X31133Y37396D2*
X29627D1*
X29367Y37136D1*
Y36146D1*
X29107Y35886D1*
X24448D1*
X23448Y36886D1*
X23142D1*
X22633Y37396D1*
X39633D2*
X40142Y36886D1*
X47623D1*
X48133Y37396D1*
X34341Y35450D2*
X32198D1*
X38856Y37302D2*
X38271Y37886D1*
X34341D1*
X48633Y32755D2*
X51004D1*
X74133Y30396D2*
X75550D1*
X76045Y29901D1*
X81368D1*
X81627Y30161D1*
Y30396D1*
X82133D1*
X66133D2*
X66692Y29837D1*
X73573D1*
X74133Y30396D1*
X22633Y37396D2*
X21520D1*
X20424Y36300D1*
X19909D1*
X17995Y34386D1*
X10638D1*
X61073Y29279D2*
X60288Y28495D1*
X54649D1*
X53994Y29149D1*
X50451D1*
X31133Y38396D2*
X36115D1*
X36605Y38886D1*
X37362D1*
X37852Y38396D1*
X39633D1*
X24337Y37562D2*
Y38136D1*
X24077Y38396D1*
X22633D1*
X62047Y31293D2*
X63444D1*
X61073Y30319D2*
X62047D1*
X24175Y30059D2*
X24022Y29906D1*
X12623D1*
X11633Y30896D1*
X61073Y31390D2*
X59150D1*
X59144Y31396D1*
X58133D1*
X74133D2*
X78542D1*
X79047Y30891D1*
X81422D1*
X81927Y31396D1*
X82133D1*
X39633Y38396D2*
X44422D1*
X44912Y38886D1*
X47642D1*
X48133Y38396D1*
X22633D2*
X23123Y38886D1*
X23295D1*
X23600Y39191D1*
X27158D1*
X27455Y38893D1*
X82133Y31396D2*
D3*
X11637Y36392D2*
X17974D1*
X19083Y37502D1*
X19765D1*
X21660Y39396D1*
X22633D1*
X74133Y32396D2*
X79831D1*
X80326Y32891D1*
X81638D1*
X82133Y32396D1*
X31133Y39396D2*
X31635Y38893D1*
X35965D1*
X58133Y32396D2*
X63832D1*
X51621Y33826D2*
Y32592D1*
X51361Y32332D1*
X48113D1*
X47528Y32917D1*
X56103Y34346D2*
X55686Y34763D1*
Y35627D1*
X55426Y35886D1*
X51635D1*
X51621Y35873D1*
X39018Y37886D2*
X46554D1*
X47138Y37302D1*
X22633Y39396D2*
X23123D1*
X23204Y39478D1*
X27878D1*
X51621Y35873D2*
D3*
X22633Y40396D2*
X26895D1*
X27386Y40886D1*
X29377D1*
X29867Y40396D1*
X31133D1*
X57133Y30396D2*
X57627Y30891D1*
X63331D1*
X63826Y30396D1*
X65133D1*
X83322Y40290D2*
Y28500D1*
X82899Y28077D1*
X14106Y30319D2*
X13210D1*
X12633Y30896D1*
X5596Y18821D2*
X14593D1*
X5596Y52113D2*
Y47566D1*
X39633Y40396D2*
X44149D1*
X44659Y39886D1*
X46112D1*
X46622Y40396D1*
X48133D1*
X31133D2*
X32963D1*
X33453Y40886D1*
X37362D1*
X37852Y40396D1*
X39633D1*
X73133Y30396D2*
X73327D1*
X73627Y30696D1*
Y30891D1*
X78040D1*
X78535Y30396D1*
X81133D1*
X73133D2*
D3*
X65133D2*
X65627Y30891D1*
X72638D1*
X73133Y30396D1*
X31133Y41396D2*
X31623Y41886D1*
X37882D1*
X38372Y41396D1*
X39633D1*
X48133D2*
X50612D1*
X74133Y33396D2*
X79571D1*
X80066Y33891D1*
X81638D1*
X82133Y33396D1*
X58133D2*
X64150D1*
X9884Y17911D2*
X11897D1*
X36777Y12909D2*
Y13396D1*
X26838D1*
X39633Y41396D2*
X44217D1*
X44702Y41882D1*
X22633Y41396D2*
X25679D1*
X25779Y41297D1*
X26936D1*
X20279Y41396D2*
X22633D1*
X20277Y42466D2*
D3*
X13137Y42374D2*
X20185D1*
X20277Y42466D1*
X22633Y42396D2*
X23123Y42886D1*
X30642D1*
X31133Y42396D1*
X45027Y31423D2*
X53050D1*
X57133Y31396D2*
X57627Y31891D1*
X63591D1*
X64086Y31396D1*
X65133D1*
X18523Y43213D2*
X18966Y43656D1*
X21630D1*
X21771Y43798D1*
X14138Y38406D2*
X16185D1*
X41779Y23303D2*
Y23887D1*
X41552Y24115D1*
X41130Y34314D2*
X43825D1*
X41130Y42888D2*
X45157D1*
X39633Y42396D2*
X40125Y42888D1*
X41130D1*
X31133Y42396D2*
X31623Y42886D1*
X39142D1*
X39633Y42396D1*
X73133Y31396D2*
X73627Y31891D1*
X80638D1*
X81133Y31396D1*
X65133D2*
X65627Y31891D1*
X66797D1*
X67292Y31396D1*
X73133D1*
X35543Y43798D2*
X33043D1*
X32641Y43396D1*
X31133D1*
X58766Y34314D2*
X63768D1*
X36647Y34898D2*
X35381D1*
X36550Y16644D2*
X37849D1*
X39633Y43396D2*
X44361D1*
X44860Y43895D1*
X46749D1*
X48133Y43396D2*
X49684D1*
X49704Y43376D1*
X14138Y41979D2*
D3*
X22633Y43396D2*
X22019D1*
X20672Y42049D1*
X14209D1*
X14138Y41979D1*
X31133Y43396D2*
X29352D1*
X28862Y43886D1*
X23123D1*
X22633Y43396D1*
X49704Y43376D2*
D3*
X39633Y44396D2*
X44591D1*
X44605Y44383D1*
X48133Y44396D2*
X51120D1*
X51134Y44383D1*
X22633Y44396D2*
X23123Y44886D1*
X30642D1*
X31133Y44396D1*
X57133Y32396D2*
X57627Y32891D1*
X64638D1*
X65133Y32396D1*
X11508Y22328D2*
X15048D1*
X6018Y18333D2*
X11508D1*
X9721Y47955D2*
X6018D1*
X21771Y47923D2*
X11670D1*
X11637Y47955D1*
X44605Y44383D2*
D3*
X51134D2*
D3*
X31133Y44396D2*
X31770D1*
X32276Y44902D1*
X36647D1*
X65133Y32396D2*
X65327D1*
X65822Y32891D1*
X70114D1*
X70609Y32396D1*
X73133D1*
X65133D2*
D3*
X11637Y47955D2*
D3*
X58133Y35396D2*
X63000D1*
X63509Y35905D1*
X45617Y43396D2*
X46898D1*
X47389Y43886D1*
X53627D1*
X54117Y43396D1*
X33497Y43376D2*
D3*
X19400Y52308D2*
X20082Y52990D1*
X26643D1*
X14626Y38958D2*
X15990D1*
X74133Y35396D2*
X79106D1*
X79611Y34891D1*
X81422D1*
X81927Y35396D1*
X82133D1*
X54117Y43396D2*
X54607D1*
X54867Y43136D1*
Y41249D1*
X56103Y40013D1*
Y38536D1*
X37117Y43396D2*
X37616Y43895D1*
X44215D1*
X33497Y43376D2*
X33517Y43396D1*
X37117D1*
X82133Y35396D2*
D3*
X73133Y33396D2*
X73628Y33891D1*
X79294D1*
X26708Y29799D2*
X26556Y29646D1*
X11383D1*
X11123Y29906D1*
Y31127D1*
X11383Y31386D1*
X15142D1*
X15633Y30896D1*
X25831Y34736D2*
X26708Y33859D1*
Y33274D1*
X57133Y33396D2*
X57627Y33891D1*
X64638D1*
X65133Y33396D1*
X51621Y36815D2*
X53472D1*
X51621Y42304D2*
X53039D1*
X53131Y42396D1*
X54117D1*
X45617D2*
X46107Y42886D1*
X48623D1*
X49205Y42304D1*
X51621D1*
X37117Y42396D2*
X38132D1*
X38641Y41886D1*
X40524D1*
X41034Y42396D1*
X45617D1*
X32040D2*
X37117D1*
X68575Y33404D2*
D3*
X65133Y33396D2*
X65627Y33891D1*
X68583D1*
Y33604D1*
X68575Y33597D1*
Y33404D1*
X66133Y36396D2*
X65627Y35891D1*
X64438D1*
X63933Y36396D1*
X58133D1*
X37117Y39396D2*
X32830D1*
X32815Y39381D1*
X30379Y33047D2*
X30536Y32890D1*
X32430D1*
X32457Y32917D1*
X16120Y27330D2*
X23525D1*
X45617Y39396D2*
X40684D1*
X40194Y39886D1*
X39167D1*
X38661Y39381D1*
X54117Y39396D2*
X53627Y39886D1*
X47291D1*
X46801Y39396D1*
X45617D1*
X58133Y36396D2*
X57638Y36891D1*
X55127D1*
X54867Y37151D1*
Y39136D1*
X54607Y39396D1*
X54117D1*
X32815Y39381D2*
D3*
X32457Y32917D2*
D3*
X54117Y41396D2*
X53627Y41886D1*
X46107D1*
X45617Y41396D1*
X23493Y30481D2*
D3*
X67146Y34411D2*
D3*
X73133Y34396D2*
D3*
X28617Y41396D2*
X27867D1*
X27122Y42141D1*
X23948D1*
X37117Y41396D2*
X32944D1*
X32434Y40886D1*
X30137D1*
X29627Y41396D1*
X28617D1*
X45617D2*
X45107Y40886D1*
X38122D1*
X37612Y41396D1*
X37117D1*
X23481Y30469D2*
Y30166D1*
X16633D1*
Y30896D1*
X57133Y34396D2*
X55946Y35583D1*
Y35886D1*
X55686Y36146D1*
X54867D1*
X54607Y36406D1*
Y38634D1*
X54347Y38893D1*
X53472D1*
X65133Y34396D2*
X64638Y34891D1*
X57627D1*
X57133Y34396D1*
X67146Y34411D2*
Y34609D1*
X67149Y34611D1*
Y34891D1*
X65627D1*
X65133Y34396D1*
X73133D2*
X73327D1*
X73822Y34891D1*
X78603D1*
X79098Y34396D1*
X81133D1*
X20245Y31390D2*
X18138D1*
X17633Y31896D1*
X44508Y45877D2*
X44027Y45396D1*
X39633D1*
X73133Y35396D2*
D3*
X48133Y45396D2*
X50217D1*
X56525Y37854D2*
X55386D1*
X55127Y38114D1*
Y40112D1*
X54607Y40631D1*
Y42629D1*
X54347Y42888D1*
X50224D1*
X22633Y45396D2*
X19862D1*
X31133D2*
X30642Y45886D1*
X27738D1*
X27248Y45396D1*
X22633D1*
X31133D2*
D3*
X39633D2*
X37852D1*
X37362Y45886D1*
X31818D1*
X31327Y45396D1*
X31133D1*
X81133Y35396D2*
X81627Y35891D1*
X82380D1*
X82639Y35631D1*
Y29766D1*
X73133Y35396D2*
X73327D1*
X73822Y35891D1*
X80130D1*
X80625Y35396D1*
X81133D1*
X28617Y44396D2*
X29825D1*
X30334Y43886D1*
X31775D1*
X32285Y44396D1*
X37117D1*
X66133Y37396D2*
X65627Y36891D1*
X62615D1*
X62529Y36977D1*
X60066D1*
X19823Y48897D2*
X23123D1*
X24292Y47728D1*
X27520D1*
X6863Y51301D2*
X17711D1*
X15568Y33404D2*
X9902D1*
X9642Y33664D1*
Y35127D1*
X9383Y35386D1*
X8131D1*
X74133Y37396D2*
X75453D1*
X75958Y36891D1*
X81422D1*
X81927Y37396D1*
X82133D1*
X54117Y44396D2*
X54607Y44886D1*
Y45627D1*
X54347Y45886D1*
X53217D1*
X52958Y46146D1*
Y50456D1*
X53217Y50716D1*
X57727D1*
X45617Y44396D2*
X46107Y44886D1*
X53627D1*
X54117Y44396D1*
X37117D2*
X37607Y44886D1*
X45127D1*
X45617Y44396D1*
X60066Y36977D2*
X59646Y37396D1*
X58133D1*
X82133D2*
D3*
X62112Y35905D2*
X59955D1*
X59941Y35891D1*
X57638D1*
X57133Y36396D1*
X71953Y36392D2*
X69387D1*
X68965Y36815D1*
X39633Y46396D2*
X42885D1*
X43375Y46886D1*
X47642D1*
X48133Y46396D1*
X27098Y45877D2*
X24320D1*
X24310Y45886D1*
X20709D1*
X20699Y45877D1*
X20667Y32397D2*
X18132D1*
X17633Y32896D1*
X37117Y45396D2*
X32191D1*
X32165Y45422D1*
X73133Y36396D2*
D3*
X32165Y45422D2*
D3*
X73133Y36396D2*
X73327D1*
X73822Y36891D1*
X74691D1*
X75186Y36396D1*
X81133D1*
X25474Y46396D2*
X22633D1*
X25474Y47208D2*
X26464D1*
X26786Y46886D1*
X29878D1*
X30368Y46396D1*
X31133D1*
X52043Y47403D2*
X51556Y47890D1*
X47236D1*
X66133Y38396D2*
X69118D1*
X69128Y38406D1*
X58896D2*
X63249D1*
X22633Y46396D2*
X19402D1*
X19142Y46136D1*
Y44176D1*
X18883Y43916D1*
X15848D1*
X15275Y43343D1*
X31133Y46396D2*
X31623Y46886D1*
X42211D1*
X42721Y47396D1*
X45617D1*
X57133Y37396D2*
X57627Y37891D1*
X64638D1*
X65133Y37396D1*
X24922Y47306D2*
X24435D1*
X24344Y47396D1*
X22633D1*
X27943Y47338D2*
Y47890D1*
X27683Y48150D1*
X24922D1*
X31133Y47396D2*
X31623Y47886D1*
X37362D1*
X37852Y47396D1*
X39633D1*
X25019Y33177D2*
X23383D1*
X23123Y33437D1*
Y33636D1*
X22863Y33896D1*
X17633D1*
X57337Y50294D2*
X53635D1*
X53375Y50034D1*
Y46916D1*
X73133Y37396D2*
D3*
X65133D2*
X65627Y37891D1*
X68506D1*
X68998Y37399D1*
X48133Y47396D2*
X50393D1*
X50874Y46916D1*
X39633Y47396D2*
X41961D1*
X42452Y47886D1*
X45862D1*
X46352Y47396D1*
X48133D1*
X73133Y37396D2*
X73327D1*
X73822Y37891D1*
X76483D1*
X76977Y37396D1*
X81133D1*
X60715Y39413D2*
X59155D1*
X59139Y39396D1*
X58133D1*
X13132Y33924D2*
D3*
X28617Y46396D2*
X26066D1*
X25672Y46791D1*
X24178D1*
X24082Y46886D1*
X20560D1*
X19801Y47646D1*
X12642D1*
X12383Y47386D1*
Y41646D1*
X12642Y41386D1*
X12872D1*
X13132Y41127D1*
Y38698D1*
X32587Y47306D2*
X34698D1*
X62534Y37399D2*
X60715D1*
X74133Y39396D2*
X75969D1*
X76474Y38891D1*
X81422D1*
X81927Y39396D1*
X82133D1*
X13132Y33924D2*
X13159Y33896D1*
X16633D1*
X82133Y39396D2*
D3*
X20797Y31358D2*
D3*
X57133Y38396D2*
X57627Y38891D1*
X64638D1*
X65133Y38396D1*
X20797Y31358D2*
X20825Y31386D1*
X27540D1*
X28205Y30721D1*
X54347D1*
X54607Y30981D1*
Y33110D1*
X55291Y33794D1*
X79684Y32917D2*
D3*
X73133Y38396D2*
X72378Y37642D1*
Y33151D1*
X72638Y32891D1*
X79658D1*
X79684Y32917D1*
X65133Y38396D2*
X65327D1*
X65822Y38891D1*
X69801D1*
X70296Y38396D1*
X73133D1*
X65133D2*
D3*
X58133Y40396D2*
X58630D1*
X58737Y40290D1*
X61300D1*
X60845Y51950D2*
X59149Y53646D1*
X6251D1*
X5991Y53386D1*
Y49180D1*
X6251Y48921D1*
X9863D1*
X10123Y48661D1*
Y35156D1*
X10383Y34896D1*
X16633D1*
X66133Y40396D2*
X69803D1*
X71308Y38891D1*
X75053D1*
X75793Y38151D1*
X78237D1*
X78497Y37891D1*
X82368D1*
X82627Y38151D1*
Y39631D1*
X82368Y39891D1*
X80630D1*
X80125Y40396D1*
X74133D1*
X82368Y39891D2*
X82627D1*
Y40096D1*
X82327Y40396D1*
X82133D1*
X61300Y40290D2*
X63659D1*
X64058Y39891D1*
X65627D1*
X66133Y40396D1*
X82133D2*
D3*
X63249Y41264D2*
X60033D1*
X26124Y50067D2*
X18100D1*
X17773Y50394D1*
X14883D1*
X14623Y50135D1*
Y49422D1*
X14363Y49162D1*
X10642D1*
X10383Y48902D1*
Y46506D1*
X11123Y45765D1*
Y36156D1*
X11383Y35896D1*
X16633D1*
X33237Y49969D2*
X38564D1*
X31613Y28045D2*
X33562D1*
X60033Y41264D2*
X59389D1*
X59257Y41396D1*
X58133D1*
X81133Y40396D2*
X80638Y40891D1*
X73627D1*
X73133Y40396D1*
X25864Y25739D2*
X19920D1*
X27683Y20899D2*
X30119D1*
X65133Y40396D2*
X64522D1*
X64234Y40685D1*
X58993D1*
X58787Y40891D1*
X57627D1*
X57133Y40396D1*
X65133D2*
D3*
X73133D2*
X71774D1*
X71279Y40891D1*
X65822D1*
X65327Y40396D1*
X65133D1*
X18101Y17781D2*
X18206Y17886D1*
X25959D1*
X27039Y16807D1*
X29697D1*
X10143Y25122D2*
Y24406D1*
X10403Y24146D1*
X30383D1*
X31133Y23396D1*
X57133Y16396D2*
X56912Y16617D1*
X54680D1*
X54550Y16487D1*
X40377D1*
X39765Y17099D1*
X10663Y35321D2*
D3*
X31133Y23396D2*
Y23886D1*
X31392Y24146D1*
X40188D1*
X40448Y23886D1*
Y22296D1*
X10663Y35321D2*
X10633Y35351D1*
Y39896D1*
X58133Y13396D2*
X57627Y12891D1*
X56785D1*
X56525Y12631D1*
Y9888D1*
X6830Y15345D2*
X5717D1*
X5457Y15085D1*
Y4946D1*
X5717Y4686D1*
X58631D1*
X59026Y5081D1*
X6830Y21029D2*
X5977Y21883D1*
Y40127D1*
X6237Y40386D1*
X8142D1*
X8633Y39896D1*
X74133Y13396D2*
X76562D1*
X77067Y12891D1*
X81422D1*
X81927Y13396D1*
X82133D1*
X13651Y24829D2*
X12709D1*
X55713Y12487D2*
X54506Y13694D1*
X28862D1*
X28185Y14371D1*
X14723D1*
X9721Y42044D2*
X5457D1*
X5198Y41784D1*
Y16097D1*
X5457Y15837D1*
X13949D1*
X14691Y16579D1*
X9526Y38828D2*
D3*
X65133Y12396D2*
D3*
X14691Y16579D2*
Y16097D1*
X14950Y15837D1*
X35678D1*
X36068Y16227D1*
X55351D1*
X56103Y15475D1*
X9526Y38828D2*
X9458Y38896D1*
X8633D1*
X73133Y12396D2*
X73627Y12891D1*
X74799D1*
X75294Y12396D1*
X81133D1*
X65133D2*
X65327D1*
X65822Y12891D1*
X67762D1*
X68257Y12396D1*
X73133D1*
X9266Y37886D2*
Y36646D1*
X9007Y36386D1*
X7402D1*
X7142Y36127D1*
Y26906D1*
X7402Y26646D1*
X11363D1*
X11623Y26386D1*
Y25484D1*
X11883Y25224D1*
X15863D1*
X16123Y25484D1*
Y26406D1*
X16383Y26666D1*
X48383D1*
X48642Y26406D1*
Y24705D1*
X48902Y24445D1*
X52889D1*
X53447Y23886D1*
X54772D1*
X55681Y22978D1*
X66133Y21396D2*
X66887Y20642D1*
X73378D1*
X74133Y21396D1*
X74327D1*
X74822Y20901D1*
X81368D1*
X81627Y21161D1*
Y21396D1*
X82133D1*
X74133D2*
D3*
X14633Y46896D2*
X16552D1*
X17552Y45896D1*
X18633D1*
X51133Y10396D2*
X51816D1*
X52075Y10136D1*
Y6478D1*
X57133Y23396D2*
X57627Y23891D1*
X60616D1*
X61110Y23396D1*
X65133D1*
X38240Y10896D2*
X39125D1*
X73133Y23396D2*
X73327D1*
X73822Y23891D1*
X78828D1*
X79323Y23396D1*
X81133D1*
X73133D2*
D3*
X65133D2*
X65327D1*
X65822Y23891D1*
X66739D1*
X67234Y23396D1*
X73133D1*
X65133D2*
D3*
X49125Y12396D2*
X48194D1*
X47194Y11396D1*
X46133D1*
X58133Y24396D2*
X61571D1*
X62079Y23887D1*
X51621Y15832D2*
X54869D1*
X51069D2*
X49120D1*
X58133Y7396D2*
X58627Y6901D1*
X65638D1*
X66133Y7396D1*
X58052Y5504D2*
X57889Y5341D1*
X32295D1*
X32133Y5504D1*
X74133Y7396D2*
X74627Y6901D1*
X81638D1*
X82133Y7396D1*
X66133D2*
X66627Y6901D1*
X73638D1*
X74133Y7396D1*
X29283Y19396D2*
X31133D1*
X53667Y13299D2*
X42461D1*
X57142Y17294D2*
X56753Y16904D1*
X53667D1*
X73133Y21396D2*
X73327D1*
X73822Y21891D1*
X74960D1*
X75455Y21396D1*
X81133D1*
X49055Y37464D2*
X49987Y38396D1*
X54117D1*
X34125Y19396D2*
X34635Y18886D1*
X39360D1*
X39870Y19396D1*
X41133D1*
X41623Y19886D1*
X45623D1*
X46133Y20396D1*
X40025Y22913D2*
D3*
X36783Y22886D2*
X39999D1*
X40025Y22913D1*
X33204Y39900D2*
X30121D1*
X28617Y38396D1*
X38271Y22296D2*
X37377D1*
X36967Y21886D1*
X33673D1*
X33076Y21289D1*
X32457D1*
X22616Y52568D2*
X23525D1*
X40545Y49774D2*
X39506D1*
X74133Y49396D2*
X74627Y49891D1*
X81638D1*
X82133Y49396D1*
X66133D2*
X66627Y49891D1*
X73638D1*
X74133Y49396D1*
X58133D2*
X58627Y49891D1*
X65638D1*
X66133Y49396D1*
X39441Y51821D2*
X57873D1*
X58133Y51561D1*
Y49396D1*
X23525Y52568D2*
X38694D1*
X39441Y51821D1*
X10793Y46656D2*
X11863D1*
X12123Y46396D1*
Y40386D1*
X11633Y39896D1*
X64483Y51138D2*
X59091D1*
X38986Y35483D2*
X38478D1*
X38075Y35886D1*
X30638D1*
X30379Y35627D1*
Y34898D1*
X23265Y34314D2*
X25442D1*
X59091Y51138D2*
X59486Y51533D1*
X61240D1*
X61500Y51793D1*
Y53646D1*
X61240Y53906D1*
X5457D1*
X5198Y53646D1*
Y46406D1*
X5457Y46146D1*
X9016D1*
X9526Y46656D1*
X57077Y51138D2*
X52303D1*
X21479Y34314D2*
X19433D1*
X30541Y25349D2*
X30379Y25187D1*
X19785D1*
X19525Y25447D1*
Y26161D1*
X20342D1*
X34341Y28857D2*
X33924Y28440D1*
X30546D1*
X38434Y33891D2*
X34341D1*
X12157Y48345D2*
X21349D1*
X11637Y45292D2*
Y46104D1*
X58766Y49287D2*
X63931D1*
X28105Y21906D2*
Y22886D1*
X25010D1*
X24756Y23140D1*
X22583D1*
X25409Y32755D2*
X27975D1*
X28617Y33396D1*
X58133Y47396D2*
X63469D1*
X44313Y33469D2*
X41130D1*
X14431Y46104D2*
Y45292D1*
X6441Y51723D2*
Y51073D1*
X6700Y50814D1*
X13651D1*
X28105Y9986D2*
X5986D1*
X28105Y22886D2*
X31623D1*
X32623Y23886D1*
X39864D1*
X40025Y23725D1*
X43403Y31813D2*
X29437D1*
X57133Y48396D2*
D3*
X23525Y33697D2*
X25442D1*
X19043Y34801D2*
X20927D1*
X14009Y44350D2*
Y47127D1*
X14268Y47386D1*
X17696D1*
X18523Y46559D1*
X73133Y48396D2*
X73627Y48891D1*
X80638D1*
X81133Y48396D1*
X65133D2*
X65327D1*
X65822Y48891D1*
X71883D1*
X72378Y48396D1*
X73133D1*
X65133D2*
D3*
X57133D2*
X57327D1*
X57822Y48891D1*
X63818D1*
X64313Y48396D1*
X65133D1*
X42754Y49612D2*
Y48800D1*
X55583Y45877D2*
Y49612D1*
X28617Y35396D2*
X25502D1*
X24992Y34886D1*
X21523D1*
X21121Y35288D1*
X19465D1*
X29274Y35385D2*
Y32890D1*
X29534Y32630D1*
X31973D1*
X32108Y32495D1*
X42851D1*
X43013Y32657D1*
X58133Y46396D2*
X63086D1*
X44215Y35385D2*
X43046D1*
X19459Y39386D2*
X14142D1*
X13633Y39896D1*
X28170Y48962D2*
X25442D1*
X13197Y46981D2*
X12642Y46427D1*
Y41906D1*
X12902Y41646D1*
X13373D1*
X13633Y41386D1*
Y40896D1*
X57133Y47396D2*
D3*
X41617Y49352D2*
X30963D1*
X25344Y36425D2*
D3*
X25442Y48962D2*
X23548D1*
X23218Y49292D1*
X18996D1*
X18471Y48767D1*
X13197D1*
X73133Y47396D2*
X73627Y47891D1*
X80638D1*
X81133Y47396D1*
X65133D2*
X65327D1*
X65822Y47891D1*
X72130D1*
X72625Y47396D1*
X73133D1*
X65133D2*
D3*
X57133D2*
X57327D1*
X57822Y47891D1*
X63883D1*
X64378Y47396D1*
X65133D1*
X52568Y47928D2*
Y48697D1*
X51036Y50229D1*
X25344Y36425D2*
X25373Y36396D1*
X28617D1*
X26936Y37399D2*
X25539Y38796D1*
X24500D1*
X74133Y45396D2*
X74627Y45891D1*
X81638D1*
X82133Y45396D1*
X24077Y49385D2*
X23683Y49779D1*
X18491D1*
X17901Y49190D1*
X15145D1*
X16282Y46169D2*
X15145D1*
X16120Y41394D2*
X15383D1*
X15123Y41135D1*
Y40386D1*
X14633Y39896D1*
X37882Y46299D2*
X38294Y45886D1*
X42192D1*
X42201Y45877D1*
X31483Y50489D2*
X32847D1*
X62495Y45396D2*
X58133D1*
X42204Y37396D2*
X45617D1*
X14626Y41589D2*
X14826Y41789D1*
X21563D1*
X21660Y41886D1*
X23039D1*
X23206Y41719D1*
X26513D1*
X81133Y46396D2*
X80638Y46891D1*
X73627D1*
X73133Y46396D1*
X34763Y29247D2*
X35548Y28462D1*
X48303D1*
X49380Y29539D1*
X31133Y36396D2*
X34760D1*
X60845Y46819D2*
X60773Y46891D1*
X57627D1*
X57133Y46396D1*
X60845Y46819D2*
D3*
X65133Y46396D2*
X64638Y46891D1*
X60918D1*
X60845Y46819D1*
X65133Y46396D2*
D3*
X73133D2*
X72559D1*
X72064Y46891D1*
X65822D1*
X65327Y46396D1*
X65133D1*
X49380Y29539D2*
Y30127D1*
X49639Y30386D1*
X54363D1*
X54623Y30127D1*
Y29666D1*
X54883Y29406D1*
X59835D1*
X53667Y37886D2*
X50241D1*
X49982Y37627D1*
Y35656D1*
X49722Y35396D1*
X48133D1*
X58133Y44396D2*
X62840D1*
X62859Y44415D1*
X21771Y40355D2*
D3*
X48133Y35396D2*
X46891D1*
X46401Y35886D1*
X39036D1*
X38036Y36886D1*
X31883D1*
X31623Y37146D1*
Y37627D1*
X31363Y37886D1*
X29367D1*
X29107Y37627D1*
Y37146D1*
X28847Y36886D1*
X25079D1*
X24819Y37146D1*
X24053D1*
X23312Y37886D1*
X21771D1*
X31623Y37146D2*
X31363Y36886D1*
X30216D1*
X29956Y36627D1*
Y35385D1*
X62859Y44415D2*
D3*
X21771Y40355D2*
X21740Y40386D1*
X16123D1*
X15633Y39896D1*
X48633Y38861D2*
Y36146D1*
X48373Y35886D1*
X47315D1*
X47301Y35873D1*
X31133Y34396D2*
X31642Y33886D1*
X32573D1*
X33705Y32755D1*
X42448D1*
X42745Y33052D1*
X44708D1*
Y33627D1*
X44967Y33886D1*
X45852D1*
X46362Y34396D1*
X48133D1*
X57133Y45396D2*
X57627Y45891D1*
X64638D1*
X65133Y45396D1*
X24597Y32430D2*
X24754Y32273D1*
X29919D1*
X29956Y32235D1*
X21089Y35905D2*
X23380D1*
X23997Y35288D1*
X24597D1*
X15633Y42791D2*
X19067D1*
X19294Y43018D1*
X20277D1*
X47301Y35873D2*
D3*
X29956Y32235D2*
D3*
X54117Y33396D2*
Y31241D1*
X53857Y30981D1*
X37582D1*
X37432Y31131D1*
X37037D1*
X58133Y43396D2*
X63367D1*
X63379Y43408D1*
X37037Y31131D2*
X28392D1*
X27770Y31753D1*
X20783D1*
X20561Y31975D1*
X19855D1*
X31645Y34898D2*
X32147Y34396D1*
X37117D1*
X26091Y40875D2*
D3*
X57133Y44396D2*
X57627Y44891D1*
X64638D1*
X65133Y44396D1*
X54117Y34396D2*
X51793Y32073D1*
X44529D1*
X44367Y32235D1*
X31645D1*
X26091Y40875D2*
X26070Y40896D1*
X16633D1*
X73133Y44396D2*
X73627Y44891D1*
X80638D1*
X81133Y44396D1*
X65133D2*
X65327D1*
X65822Y44891D1*
X71958D1*
X72453Y44396D1*
X73133D1*
X65133D2*
D3*
X56135Y49287D2*
Y44393D1*
X57133Y43396D1*
X41357Y50814D2*
X40545D1*
X20537Y51821D2*
X35543D1*
X41519Y33891D2*
X39026D1*
X38631Y34286D1*
X38227D1*
X37117Y35396D1*
X38759Y47890D2*
X41519D1*
X73133Y43396D2*
X73627Y43891D1*
X80638D1*
X81133Y43396D1*
X65133D2*
X65327D1*
X65822Y43891D1*
X71698D1*
X72193Y43396D1*
X73133D1*
X65133D2*
D3*
X57133D2*
X57627Y43891D1*
X64638D1*
X65133Y43396D1*
X44475Y31390D2*
X38044D1*
X18134Y37399D2*
Y38127D1*
X17874Y38386D1*
X17142D1*
X16633Y38896D1*
X58133Y42396D2*
X63374D1*
X54117Y36396D2*
X51021D1*
X50761Y36136D1*
Y34146D1*
X50501Y33886D1*
X46981D1*
X45752Y32657D1*
X44475D1*
X38044Y31390D2*
X37499D1*
X37364Y31525D1*
X36450D1*
X36315Y31390D1*
X28963D1*
X28341Y32013D1*
X21869D1*
X21062Y32820D1*
X18523D1*
X57133Y42396D2*
X57627Y42891D1*
X64638D1*
X65133Y42396D1*
X54117Y37396D2*
X50761D1*
X50501Y37136D1*
Y35158D1*
X50241Y34898D1*
X38434D1*
X26936Y39900D2*
X20864D1*
X19860Y38896D1*
X17633D1*
X37117Y37396D2*
X32525D1*
X32035Y37886D1*
X73133Y42396D2*
X73627Y42891D1*
X80638D1*
X81133Y42396D1*
X65133D2*
X65627Y42891D1*
X72638D1*
X73133Y42396D1*
X23103Y21906D2*
X12431D1*
X11549Y21024D1*
X8633D1*
X8373Y21284D1*
Y22963D1*
X6237Y25099D1*
Y39636D1*
X6497Y39896D1*
X7633D1*
X48957Y30319D2*
X48815Y30461D1*
X26299D1*
X26286Y30448D1*
X58133Y9396D2*
X61100D1*
X74133D2*
X78252D1*
X78747Y9891D1*
X81638D1*
X82133Y9396D1*
X40448Y7810D2*
Y8627D1*
X40707Y8886D1*
X46624D1*
X46651Y8914D1*
X30119Y9401D2*
X39765D1*
X46651Y8914D2*
D3*
X45547Y9888D2*
X41640D1*
X41133Y10396D1*
X40160Y9424D1*
Y8646D1*
X39900Y8386D1*
X35753D1*
X35012Y7646D1*
X31383D1*
X30133Y6396D1*
X36133Y21396D2*
X37404D1*
X37894Y21886D1*
X43635D1*
X44125Y21396D1*
X49315Y26291D2*
X53527D1*
X54133Y26896D1*
X57133Y7396D2*
X57627Y7891D1*
X64638D1*
X65133Y7396D1*
X49769Y6900D2*
X48730D1*
X48470Y7160D1*
Y8394D1*
X73133Y7396D2*
X73627Y7891D1*
X80638D1*
X81133Y7396D1*
X65133D2*
X65627Y7891D1*
X72638D1*
X73133Y7396D1*
X51946Y28467D2*
X50316D1*
X50057Y28727D1*
Y29636D1*
X50316Y29896D1*
X51133D1*
X54641Y7875D2*
Y8817D1*
X56103Y10278D1*
X82133Y10396D2*
X82887Y9642D1*
Y6705D1*
X82627Y6446D1*
X63151D1*
Y10311D2*
X63996D1*
X51653Y7875D2*
Y9627D1*
X51393Y9886D1*
X50811D1*
X50386Y10311D1*
X36133Y18396D2*
X37786D1*
X38296Y17886D1*
X39375D1*
X40375Y18886D1*
X45623D1*
X46133Y19396D1*
X73133Y9396D2*
X72053D1*
X71558Y9891D1*
X65822D1*
X65327Y9396D1*
X65133D1*
X57133D2*
X55036Y7300D1*
Y6121D1*
X54776Y5861D1*
X45660D1*
X44125Y7396D1*
X57133Y9396D2*
D3*
X65133D2*
X62009D1*
X61515Y9891D1*
X57822D1*
X57327Y9396D1*
X57133D1*
X65133D2*
D3*
X81133Y14396D2*
X79777D1*
X79282Y14891D1*
X73822D1*
X73327Y14396D1*
X73133D1*
X46164Y14371D2*
X34668D1*
X33856Y15183D1*
X8649D1*
X57133Y14396D2*
X54746D1*
X54720Y14371D1*
X46164D1*
X65133Y14396D2*
X64638Y14891D1*
X57627D1*
X57133Y14396D1*
X65133D2*
D3*
X73133D2*
X72625D1*
X72130Y14891D1*
X65822D1*
X65327Y14396D1*
X65133D1*
X73133D2*
D3*
X10533Y29929D2*
X10123Y30339D1*
Y31406D1*
X9633Y31896D1*
X55031Y24894D2*
X51683D1*
X51456Y25122D1*
X50906D1*
X74133Y23396D2*
X78055D1*
X78561Y22891D1*
X81422D1*
X81927Y23396D1*
X82133D1*
X50906Y25122D2*
X49162D1*
X48902Y25382D1*
Y26666D1*
X48642Y26926D1*
X15575D1*
X15170Y27330D1*
X10533D1*
X82133Y23396D2*
D3*
X51133Y22396D2*
X52451D1*
X52941Y22886D1*
X54665D1*
X55155Y22396D1*
X57133D1*
X48535Y29929D2*
X48262Y30201D1*
X27918D1*
X27103Y29386D1*
X9892D1*
X9633Y29646D1*
Y30896D1*
X50386Y26876D2*
X49315D1*
X73133Y22396D2*
X73627Y22891D1*
X77288D1*
X77783Y22396D1*
X81133D1*
X65133D2*
X65627Y22891D1*
X72638D1*
X73133Y22396D1*
X57133D2*
X57327D1*
X57822Y22891D1*
X59181D1*
X59676Y22396D1*
X65133D1*
X57133D2*
D3*
X66133D2*
X65627Y21891D1*
X58638D1*
X58133Y22396D1*
X16997Y23563D2*
X10566D1*
X51556Y24050D2*
X48509D1*
X48249Y24310D1*
Y24667D1*
X47989Y24927D1*
X17159D1*
X16997Y25089D1*
X58133Y22396D2*
X57627Y21891D1*
X53627D1*
X51133Y19396D1*
X9633Y25896D2*
Y22987D1*
X9892Y22727D1*
X23302D1*
X25633Y20396D1*
X57133Y8396D2*
X57627Y8891D1*
X64638D1*
X65133Y8396D1*
X73133D2*
X73627Y8891D1*
X80638D1*
X81133Y8396D1*
X65133D2*
X65327D1*
X65822Y8891D1*
X72075D1*
X72570Y8396D1*
X73133D1*
X65133D2*
D3*
X18036Y28272D2*
X24419D1*
X25305Y27386D1*
X54511D1*
X54771Y27127D1*
Y26583D1*
X57133Y25396D2*
X57627Y25891D1*
X64638D1*
X65133Y25396D1*
X17133Y28896D2*
X16638Y28402D1*
X11605D1*
X15633Y25896D2*
X15128D1*
X14118Y26906D1*
X7892D1*
X7633Y27166D1*
Y31896D1*
X66133Y25396D2*
X66627Y25891D1*
X73638D1*
X74133Y25396D1*
X15633Y24829D2*
X15795Y24667D1*
X47729D1*
X47989Y24407D1*
Y22146D1*
X48249Y21886D1*
X52355D1*
X52368Y21874D1*
X74133Y25396D2*
X74627Y25891D1*
X81638D1*
X82133Y25396D1*
X81133Y24396D2*
X80638Y24891D1*
X73627D1*
X73133Y24396D1*
X18633Y28896D2*
X18078D1*
X17167Y27985D1*
X9383D1*
X9123Y28245D1*
Y32406D1*
X8633Y32896D1*
X57133Y24396D2*
X55686D1*
X55426Y24656D1*
Y27386D1*
X55166Y27646D1*
X27687D1*
X26437Y28896D1*
X18633D1*
X57133Y24396D2*
D3*
X65133D2*
X64491D1*
X63996Y24891D1*
X57822D1*
X57327Y24396D1*
X57133D1*
X65133D2*
D3*
X73133D2*
X71486D1*
X70991Y24891D1*
X65822D1*
X65327Y24396D1*
X65133D1*
X42559Y22816D2*
D3*
X44125Y18396D2*
X44635Y17886D1*
X57368D1*
X57627Y17627D1*
Y16151D1*
X57887Y15891D1*
X64638D1*
X65133Y15396D1*
X57887Y15891D2*
X57627D1*
X57133Y15396D1*
X41133Y23396D2*
Y24146D1*
X40873Y24406D1*
X10798D1*
X10538Y24666D1*
Y26127D1*
X10278Y26386D1*
X7142D1*
X6883Y26646D1*
Y39127D1*
X7142Y39386D1*
X9123D1*
X9633Y39896D1*
X42559Y22816D2*
X42488Y22886D1*
X41133D1*
Y23396D1*
X73133Y15396D2*
X73627Y15891D1*
X80638D1*
X81133Y15396D1*
X65133D2*
X65327D1*
X65822Y15891D1*
X71883D1*
X72378Y15396D1*
X73133D1*
X65133D2*
D3*
X81133Y41396D2*
X80457D1*
X79962Y41891D1*
X73822D1*
X73327Y41396D1*
X73133D1*
X50633Y50896D2*
Y49146D1*
X50373Y48886D1*
X46107D1*
X45617Y48396D1*
X17633Y18396D2*
X12558D1*
X12298Y18136D1*
Y16656D1*
Y16526D1*
X12168Y16396D1*
X10633D1*
X27633Y25896D2*
X30581D1*
X31291Y25187D1*
X32423D1*
X33133Y25896D1*
Y12396D2*
X38625D1*
X39125Y12896D1*
X8133Y52896D2*
X8623Y53386D1*
X12642D1*
X13133Y52896D1*
X18636Y50900D2*
X24101D1*
X24105Y50896D1*
X25133D1*
X20633Y23396D2*
X21123Y23886D1*
X28135D1*
X28625Y23396D1*
X54125D2*
X52206D1*
X51696Y22886D1*
X49635D1*
X49125Y23396D1*
X38133Y14896D2*
X38642Y15406D1*
X42623D1*
X43133Y14896D1*
X20633Y21396D2*
X22633D1*
X49315Y25674D2*
X51134D1*
X10751Y13562D2*
X9097D1*
X9633Y28896D2*
X11133D1*
X52633Y26896D2*
X51133D1*
X18633Y25896D2*
X17133D1*
X8130Y27330D2*
X9624D1*
X50373Y48886D2*
X50849Y48410D1*
X52173D1*
X13133Y16396D2*
X12558D1*
X12298Y16656D1*
X54117Y46396D2*
X54607Y46886D1*
Y47906D1*
X54117Y48396D1*
X57133Y41396D2*
X55127Y43402D1*
Y46136D1*
X54867Y46396D1*
X54117D1*
X65133Y41396D2*
X64638Y41891D1*
X57627D1*
X57133Y41396D1*
X65133D2*
D3*
X73133D2*
X72541D1*
X72046Y41891D1*
X65822D1*
X65327Y41396D1*
X65133D1*
X73133D2*
D3*
X33633Y50896D2*
X31117D1*
X28617Y48396D1*
X42133Y50896D2*
X41623Y50386D1*
X34142D1*
X33633Y50896D1*
X45617Y48396D2*
X43627Y50386D1*
X42642D1*
X42133Y50896D1*
Y25896D2*
X42842Y25187D1*
X47423D1*
X48133Y25896D1*
X37133D2*
X37842Y25187D1*
X41423D1*
X42133Y25896D1*
X33133D2*
X37133D1*
X11216Y35386D2*
X17123D1*
X17633Y35896D1*
X13133Y52896D2*
X13623Y53386D1*
X15642D1*
X16133Y52896D1*
X48133Y14896D2*
X51209D1*
X51718Y15406D1*
X52623D1*
X53133Y14896D1*
X43133D2*
X45954D1*
X46463Y15406D1*
X47623D1*
X48133Y14896D1*
X14133Y28896D2*
X15633D1*
X12633D2*
X14133D1*
X11133D2*
X12633D1*
X51633Y50896D2*
X51123Y51406D1*
X43642D1*
X43133Y50896D1*
X25633Y17396D2*
Y16656D1*
X25892Y16396D1*
X31133D1*
X49125Y8396D2*
X49904D1*
X50164Y8136D1*
Y7365D1*
X51133Y6396D1*
X18633Y44896D2*
X15633D1*
X14633Y43896D1*
X46133Y10396D2*
X47115D1*
X48115Y9396D1*
X49125D1*
X51133Y17396D2*
X50543Y16807D1*
X46722D1*
X46133Y17396D1*
X47133Y25896D2*
X46623Y26406D1*
X43642D1*
X43133Y25896D1*
X36133Y5896D2*
X36633Y6396D1*
X41133D1*
X57133Y39396D2*
X57627Y39891D1*
X61211D1*
X61625Y39478D1*
Y29279D2*
Y26421D1*
X61365Y26161D1*
X55843D1*
X73133Y39396D2*
X73627Y39891D1*
X78707D1*
X79202Y39396D1*
X81133D1*
X21219Y33437D2*
X18783D1*
X15633Y17396D2*
X13133D1*
X10633D2*
X8133D1*
X15633Y21396D2*
X17633D1*
X15711Y13562D2*
X17365D1*
X8633Y36896D2*
X7633D1*
X55291Y34898D2*
X51281D1*
X51021Y34638D1*
Y33656D1*
X50761Y33396D1*
X48133D1*
X16633Y37896D2*
X12459D1*
X11540Y36977D1*
X18636Y51900D2*
X11129D1*
X10133Y52896D1*
X26133Y50896D2*
X25623Y51406D1*
X20129D1*
X19635Y51900D1*
X18636D1*
X34633Y50896D2*
X34123Y51406D1*
X26642D1*
X26133Y50896D1*
X43133D2*
X42623Y51406D1*
X35142D1*
X34633Y50896D1*
X32912Y16417D2*
X33382Y16886D1*
X35623D1*
X36133Y17396D1*
X32912Y16417D2*
D3*
X31133Y16396D2*
X32891D1*
X32912Y16417D1*
X46133Y17396D2*
X45543Y16807D1*
X41722D1*
X41133Y17396D1*
X32133Y25896D2*
X31623Y26406D1*
X27142D1*
X26633Y25896D1*
X38133D2*
X37623Y26406D1*
X32642D1*
X32133Y25896D1*
X43133D2*
X42623Y26406D1*
X38642D1*
X38133Y25896D1*
X61625Y39478D2*
X64471D1*
X64553Y39396D1*
X65133D1*
X17365Y13562D2*
X19018D1*
X15633Y20396D2*
X7847D1*
X7587Y20656D1*
Y21942D1*
X16542Y18821D2*
X15633D1*
X22633Y18396D2*
X21633Y19396D1*
X20633D1*
X14528Y17911D2*
X16620D1*
X17145Y17386D1*
X22611D1*
X15133Y52896D2*
X14396Y52160D1*
X11869D1*
X11133Y52896D1*
X51133Y18396D2*
X49875D1*
X49615Y18656D1*
Y19627D1*
X49355Y19886D1*
X47623D1*
X46623Y20886D1*
X31642D1*
X31133Y21396D1*
X51133Y12396D2*
X50642Y12886D1*
X42846D1*
X41856Y11896D1*
X39125D1*
X41133Y8396D2*
X42125D1*
X44125Y6396D1*
X46133D2*
Y7396D1*
X47615D1*
X47874Y7656D1*
Y8627D1*
X48134Y8886D1*
X50623D1*
X51133Y9396D1*
X35413Y11805D2*
X30379D1*
X29761D1*
X29502Y12065D1*
Y12357D1*
X21877D1*
X20672Y13562D1*
X10751Y11396D2*
X9097D1*
X57133D2*
X57627Y11891D1*
X64638D1*
X65133Y11396D1*
X25633D2*
X40165D1*
X40675Y10886D1*
X55282D1*
X55681Y11285D1*
X23979Y11396D2*
X23194Y10611D1*
X8229D1*
X7444Y11396D1*
X73133D2*
X73627Y11891D1*
X80638D1*
X81133Y11396D1*
X65133D2*
X65627Y11891D1*
X72638D1*
X73133Y11396D1*
X31133Y20396D2*
X30514Y21015D1*
Y21627D1*
X30773Y21886D1*
X32045D1*
X32555Y22396D1*
X34125D1*
X31905Y20282D2*
X31510Y19886D1*
X26123D1*
X25633Y19396D1*
X53927Y28045D2*
X47333D1*
X54117Y45396D2*
X52512D1*
X52022Y45886D1*
X46107D1*
X45617Y45396D1*
X36133Y23396D2*
X35623Y22886D1*
X32301D1*
X31905Y22491D1*
X55323Y29961D2*
Y32820D1*
X54609Y19892D2*
X56103D1*
X53115Y25739D2*
X54641D1*
X25633Y19396D2*
X23897D1*
X22407Y20886D1*
X17142D1*
X16142Y19886D1*
X5977D1*
X5717Y20146D1*
Y40636D1*
X5977Y40896D1*
X8633D1*
X47333Y28045D2*
X36128D1*
X43598Y48313D2*
X42255D1*
X41638Y48930D1*
X35933D1*
X30568D1*
Y47656D1*
X30309Y47396D1*
X28617D1*
X8130Y27883D2*
X8287Y27725D1*
X24332D1*
X25633Y18396D2*
X27360D1*
X27870Y17886D1*
X32535D1*
X32770Y17651D1*
X33204D1*
X44248Y38926D2*
D3*
X45617Y40396D2*
D3*
X32652Y7030D2*
X33009Y7386D1*
X39365D1*
X39865Y6886D1*
X41723D1*
X43009Y5601D1*
X55664D1*
X55962Y5898D1*
X63568D1*
X72473Y9953D2*
D3*
X37037Y17911D2*
D3*
X33204Y17651D2*
X33599D1*
X33835Y17886D1*
X37012D1*
X37037Y17911D1*
X35056Y40420D2*
X33659D1*
X35056D2*
D3*
X37117Y40396D2*
X35079D1*
X35056Y40420D1*
X44248Y38926D2*
X44208Y38886D1*
X38127D1*
X37867Y39146D1*
Y39646D1*
X37117Y40396D1*
X45617D2*
X45812D1*
X46302Y40886D1*
X53627D1*
X54117Y40396D1*
X72473Y9953D2*
X72535Y9891D1*
X77575D1*
X77995Y10311D1*
X57133Y10396D2*
X57637Y10900D1*
X59736D1*
X60131Y10506D1*
X25633Y30896D2*
X22194D1*
Y30741D1*
X60131Y5504D2*
X58658D1*
X58236Y5081D1*
X27260D1*
X73133Y10396D2*
X73627Y10891D1*
X80638D1*
X81133Y10396D1*
X65133D2*
Y10891D1*
X72638D1*
X73133Y10396D1*
X60131Y10506D2*
X61967D1*
X62571Y9901D1*
X64391D1*
Y10396D1*
X65133D1*
X22194Y30741D2*
X17383D1*
X17123Y31001D1*
Y32127D1*
X16863Y32386D1*
X9642D1*
X9383Y32646D1*
Y34127D1*
X9123Y34386D1*
X8142D1*
X7633Y34896D1*
X22194Y30741D2*
D3*
X40675Y19892D2*
X32803D1*
X31797Y18886D1*
X23392D1*
X22392Y19886D1*
X16532D1*
X16272Y19627D1*
X5717D1*
X5457Y19886D1*
Y41127D1*
X5717Y41386D1*
X9142D1*
X9633Y40896D1*
X82133Y16396D2*
X81378Y17151D1*
X77513D1*
X76758Y16396D1*
X74133D1*
X41133Y20396D2*
X42803D1*
X42819Y20412D1*
X58133Y16396D2*
Y18627D1*
X57873Y18886D1*
X50135D1*
X49875Y19146D1*
Y20627D1*
X49615Y20886D1*
X47721D1*
X46721Y21886D1*
X45389D1*
X44880Y22396D1*
X44125D1*
X66133Y16396D2*
X65638Y16891D1*
X58627D1*
X58133Y16396D1*
X74133D2*
X73638Y16891D1*
X66627D1*
X66133Y16396D1*
X42819Y20412D2*
D3*
X81133Y13396D2*
X77967D1*
X77472Y13891D1*
X73822D1*
X73327Y13396D1*
X73133D1*
X57133D2*
X56252D1*
X55694Y13954D1*
X32095D1*
X31283Y14766D1*
X9643D1*
X9225Y14347D1*
X6562D1*
X6408Y14501D1*
X65133Y13396D2*
X64638Y13891D1*
X57627D1*
X57133Y13396D1*
X65133D2*
D3*
X73133D2*
X70947D1*
X70452Y13891D1*
X65822D1*
X65327Y13396D1*
X65133D1*
X73133D2*
D3*
X8130Y30156D2*
Y33393D1*
X8633Y33896D1*
X8779Y22881D2*
Y25122D1*
X48665Y15443D2*
X48442Y15666D1*
X36419D1*
X36330Y15578D1*
X8254D1*
X7995Y15318D1*
Y15020D1*
X8254Y14760D1*
X9039D1*
X54771Y14858D2*
X56525D1*
X48535Y11902D2*
X54771D1*
X74133Y14396D2*
X78413D1*
X78918Y13891D1*
X81422D1*
X81927Y14396D1*
X82133D1*
D26*
X10631Y34379D3*
X32198Y35450D3*
X34341D3*
Y37886D3*
X38856Y37302D3*
X51004Y32755D3*
X48633D3*
X50451Y29149D3*
X61073Y29279D3*
X27455Y38893D3*
X63444Y31293D3*
X62047D3*
Y30319D3*
X61073D3*
X24175Y30059D3*
X24337Y37562D3*
X61073Y31390D3*
X27878Y39478D3*
X35965Y38893D3*
X63833Y32397D3*
X47528Y32917D3*
X51621Y33826D3*
Y35873D3*
X56103Y34346D3*
X47138Y37302D3*
X39018Y37886D3*
X11637Y36392D3*
X82899Y28077D3*
X83322Y40290D3*
X14106Y30319D3*
X14593Y18821D3*
X5596D3*
Y47566D3*
Y52113D3*
X44702Y41882D3*
X26936Y41297D3*
X50614Y41394D3*
X64158Y33404D3*
X11897Y17911D3*
X9884D3*
X26838Y13396D3*
X36777Y12909D3*
X20277Y41394D3*
Y42466D3*
X13132Y42369D3*
X53050Y31423D3*
X45027D3*
X21771Y43798D3*
X18523Y43213D3*
X16185Y38406D3*
X14138D3*
X41552Y24115D3*
X41779Y23303D3*
X43825Y34314D3*
X41130D3*
X45157Y42888D3*
X41130D3*
X14138Y41979D3*
X35543Y43798D3*
X63768Y34314D3*
X35381Y34898D3*
X36647D3*
X37849Y16644D3*
X36550D3*
X46749Y43895D3*
X49704Y43376D3*
X58766Y34314D3*
X44605Y44383D3*
X51134D3*
X36647Y44902D3*
X15048Y22328D3*
X11508D3*
Y18333D3*
X6018D3*
Y47955D3*
X9721D3*
X11637D3*
X21771Y47923D3*
X63509Y35905D3*
X44215Y43895D3*
X33497Y43376D3*
X26643Y52990D3*
X19400Y52308D3*
X15990Y38958D3*
X14626D3*
X56103Y38536D3*
X79294Y33891D3*
X26708Y29799D3*
Y33274D3*
X25831Y34736D3*
X32035Y42401D3*
X53472Y36815D3*
X51621D3*
X68575Y33404D3*
X51621Y42304D3*
X32457Y32917D3*
X30379Y33047D3*
X23525Y27330D3*
X16120D3*
X38661Y39381D3*
X32815D3*
X23948Y42141D3*
X23493Y30481D3*
X53472Y38893D3*
X67146Y34411D3*
X20245Y31390D3*
X19855Y45389D3*
X82639Y29766D3*
X44508Y45877D3*
X50224Y45389D3*
Y42888D3*
X56525Y37854D3*
X27520Y47728D3*
X19823Y48897D3*
X17711Y51301D3*
X6863D3*
X8130Y35385D3*
X15568Y33404D3*
X57727Y50716D3*
X60066Y36977D3*
X68965Y36815D3*
X71953Y36392D3*
X20699Y45877D3*
X20667Y32397D3*
X32165Y45422D3*
X62112Y35905D3*
X27098Y45877D3*
X15275Y43343D3*
X47236Y47890D3*
X52043Y47403D3*
X69128Y38406D3*
X25474Y46396D3*
Y47208D3*
X63249Y38406D3*
X58896D3*
X24922Y48150D3*
X27943Y47338D3*
X25019Y33177D3*
X68998Y37399D3*
X50874Y46916D3*
X53375D3*
X57337Y50294D3*
X24922Y47306D3*
X13132Y33924D3*
Y38698D3*
X34698Y47306D3*
X32587D3*
X60715Y37399D3*
X62534D3*
X60715Y39413D3*
X55291Y33794D3*
X20797Y31358D3*
X79684Y32917D3*
X60845Y51950D3*
X61300Y40290D3*
X26124Y50067D3*
X38564Y49969D3*
X33237D3*
X33562Y28045D3*
X31613D3*
X63249Y41264D3*
X60033D3*
X19920Y25739D3*
X25864D3*
X30119Y20899D3*
X27683D3*
X29697Y16807D3*
X18101Y17781D3*
X40448Y22296D3*
X39765Y17099D3*
X10663Y35321D3*
X10143Y25122D3*
X56525Y9888D3*
X59026Y5081D3*
X6830Y15345D3*
Y21029D3*
X12709Y24829D3*
X13651D3*
X14723Y14371D3*
X55713Y12487D3*
X56103Y15475D3*
X9526Y38828D3*
X9721Y42044D3*
X14691Y16579D3*
X55681Y22978D3*
X9266Y37886D3*
X52075Y6478D3*
X38239Y10895D3*
X62079Y23887D3*
X54869Y15832D3*
X51621D3*
X49120D3*
X51069D3*
X32133Y5504D3*
X58052D3*
X29274Y19405D3*
X42461Y13299D3*
X53667D3*
Y16904D3*
X57142Y17294D3*
X49055Y37464D3*
X40025Y22913D3*
X36777Y22881D3*
X33204Y39900D3*
X32457Y21289D3*
X38271Y22296D3*
X39506Y49774D3*
X40545D3*
X23525Y52568D3*
X22616D3*
X39441Y51821D3*
X10793Y46656D3*
X9526D3*
X64483Y51138D3*
X59091D3*
X30379Y34898D3*
X25442Y34314D3*
X23265D3*
X38986Y35483D3*
X52303Y51138D3*
X57077D3*
X19433Y34314D3*
X20342Y26161D3*
X30541Y25349D3*
Y28435D3*
X34341Y28857D3*
Y33891D3*
X38434D3*
X21349Y48345D3*
X12157D3*
X11637Y46104D3*
Y45292D3*
X63931Y49287D3*
X58766D3*
X21479Y34314D3*
X40025Y23725D3*
X28105Y21906D3*
X22583Y23140D3*
X25409Y32755D3*
X63476Y47403D3*
X41130Y33469D3*
X44313D3*
X14431Y45292D3*
Y46104D3*
X13651Y50814D3*
X6441Y51723D3*
X5986Y9986D3*
X28105D3*
Y22886D3*
X29437Y31813D3*
X43403D3*
X25442Y33697D3*
X23525D3*
X20927Y34801D3*
X19043D3*
X18523Y46559D3*
X14009Y44350D3*
X42754Y48800D3*
Y49612D3*
X55583D3*
Y45877D3*
X19465Y35288D3*
Y39381D3*
X43013Y32657D3*
X29274Y35385D3*
X63086Y46396D3*
X43046Y35385D3*
X44215D3*
X13197Y48767D3*
Y46981D3*
X28170Y48962D3*
X30963Y49352D3*
X41617D3*
X51036Y50229D3*
X25344Y36425D3*
X25442Y48962D3*
X52563Y47923D3*
X24500Y38796D3*
X26936Y37399D3*
X15145Y49190D3*
Y46169D3*
X16282D3*
X16120Y41394D3*
X42201Y37399D3*
Y45877D3*
X37882Y46299D3*
X32847Y50489D3*
X31483D3*
X24077Y49385D3*
X62502Y45389D3*
X26513Y41719D3*
X14626Y41589D3*
X60845Y46819D3*
X59838Y29409D3*
X34763Y29247D3*
Y36392D3*
X49380Y29539D3*
X53667Y37886D3*
X62859Y44415D3*
X21771Y40355D3*
Y37886D3*
X29956Y35385D3*
X47301Y35873D3*
X48633Y38861D3*
X29956Y32235D3*
X24597Y32430D3*
Y35288D3*
X21089Y35905D3*
X20277Y43018D3*
X15633Y42791D3*
X63379Y43408D3*
X19855Y31975D3*
X37037Y31131D3*
X26091Y40875D3*
X31645Y32235D3*
Y34898D3*
X56135Y49287D3*
X40545Y50814D3*
X41357D3*
X35543Y51821D3*
X20537D3*
X41519Y33891D3*
Y47890D3*
X38759D3*
X18523Y32820D3*
X18134Y37399D3*
X63379Y42401D3*
X44475Y32657D3*
Y31390D3*
X38044D3*
X38434Y34898D3*
X26936Y39900D3*
X32035Y37886D3*
X23103Y21906D3*
X26286Y30448D3*
X48957Y30319D3*
X61105Y9401D3*
X46651Y8914D3*
X40448Y7810D3*
X39765Y9401D3*
X30119D3*
X45547Y9888D3*
X49315Y26291D3*
X48470Y8394D3*
X49769Y6900D3*
X51946Y28467D3*
X56103Y10278D3*
X54641Y7875D3*
X63151Y6446D3*
X63996Y10311D3*
X63151D3*
X50386D3*
X51653Y7875D3*
X8649Y15183D3*
X46164Y14371D3*
X10533Y29929D3*
Y27330D3*
X55031Y24894D3*
X50906Y25122D3*
X48535Y29929D3*
X49315Y26876D3*
X50386D3*
X10566Y23563D3*
X16997D3*
Y25089D3*
X51556Y24050D3*
X54771Y26583D3*
X18036Y28272D3*
X11605Y28402D3*
X52368Y21874D3*
X15633Y24829D3*
X42559Y22816D3*
X51134Y25674D3*
X9624Y27330D3*
X8130D3*
X52173Y48410D3*
X11215Y35385D3*
X49315Y25674D3*
X55843Y26161D3*
X61625Y29279D3*
X18783Y33437D3*
X21219D3*
X55291Y34898D3*
X11540Y36977D3*
X61625Y39478D3*
X32912Y16417D3*
X15633Y18821D3*
X16542D3*
X22616Y17391D3*
X14528Y17911D3*
X30379Y11805D3*
X35413D3*
X55681Y11285D3*
X47333Y28045D3*
X53927D3*
X31905Y22491D3*
Y20282D3*
X55323Y32820D3*
Y29961D3*
X56103Y19892D3*
X54609D3*
X54641Y25739D3*
X53115D3*
X36128Y28045D3*
X43598Y48313D3*
X35933Y48930D3*
X24337Y27720D3*
X8130Y27883D3*
X37037Y17911D3*
X33659Y40420D3*
X44248Y38926D3*
X63573Y5893D3*
X32652Y7030D3*
X77995Y10311D3*
X72473Y9953D3*
X35056Y40420D3*
X33204Y17651D3*
X27260Y5081D3*
X60131Y5504D3*
X22194Y30741D3*
X60131Y10506D3*
X42819Y20412D3*
X40675Y19892D3*
X6408Y14501D3*
X8130Y30156D3*
X8779Y25122D3*
Y22881D3*
X9039Y14760D3*
X48665Y15443D3*
X56525Y14858D3*
X54771D3*
Y11902D3*
X48535D3*
D15*
X18633Y44896D3*
D16*
Y45896D3*
D15*
X43133Y25896D3*
D16*
X42133D3*
D15*
X19633Y16396D3*
D16*
X18633D3*
D15*
X15633Y21396D3*
D16*
Y20396D3*
D15*
Y17396D3*
D16*
Y16396D3*
D15*
X33133Y25896D3*
D16*
X32133D3*
D15*
X48133D3*
D16*
X47133D3*
D15*
X43133Y50896D3*
D16*
X42133D3*
D15*
X27633Y25896D3*
D16*
X26633D3*
D15*
X18636Y50900D3*
D16*
Y51900D3*
D15*
X10633Y17396D3*
D16*
Y16396D3*
D15*
X8133Y17396D3*
D16*
Y16396D3*
D15*
X13133Y17396D3*
D16*
Y16396D3*
D15*
X51633Y50896D3*
D16*
X50633D3*
D15*
X38133Y14896D3*
D16*
X37133D3*
D15*
X48133D3*
D16*
X47133D3*
D15*
X43133D3*
D16*
X42133D3*
D15*
X53133D3*
D16*
X52133D3*
D15*
X34633Y50896D3*
D16*
X33633D3*
D15*
X26133D3*
D16*
X25133D3*
D15*
X38133Y25896D3*
D16*
X37133D3*
D17*
X36133Y29396D3*
D18*
X37983D3*
X39833D3*
D19*
X82133Y49396D3*
Y48396D3*
Y47396D3*
Y46396D3*
Y45396D3*
Y44396D3*
Y43396D3*
Y42396D3*
Y41396D3*
Y40396D3*
Y39396D3*
Y38396D3*
Y37396D3*
Y36396D3*
Y35396D3*
Y34396D3*
Y33396D3*
Y32396D3*
Y31396D3*
D20*
Y30396D3*
D19*
X81133D3*
Y31396D3*
Y32396D3*
Y33396D3*
Y34396D3*
Y35396D3*
Y36396D3*
Y37396D3*
Y38396D3*
Y39396D3*
Y40396D3*
Y41396D3*
Y42396D3*
Y43396D3*
Y44396D3*
Y45396D3*
Y46396D3*
Y47396D3*
Y48396D3*
Y49396D3*
D20*
X73133Y16396D3*
D19*
Y15396D3*
Y14396D3*
Y13396D3*
Y12396D3*
Y11396D3*
Y10396D3*
Y9396D3*
Y8396D3*
Y7396D3*
X74133D3*
Y8396D3*
Y9396D3*
Y10396D3*
Y11396D3*
Y12396D3*
Y13396D3*
Y14396D3*
Y15396D3*
Y16396D3*
X82133Y21396D3*
X81133D3*
Y22396D3*
X82133D3*
X81133Y23396D3*
X82133D3*
X81133Y24396D3*
X82133D3*
Y25396D3*
D20*
X81133D3*
D19*
X58133Y49396D3*
Y48396D3*
Y47396D3*
Y46396D3*
Y45396D3*
Y44396D3*
Y43396D3*
Y42396D3*
Y41396D3*
Y40396D3*
Y39396D3*
Y38396D3*
Y37396D3*
Y36396D3*
Y35396D3*
Y34396D3*
Y33396D3*
Y32396D3*
Y31396D3*
D20*
Y30396D3*
D19*
X57133D3*
Y31396D3*
Y32396D3*
Y33396D3*
Y34396D3*
Y35396D3*
Y36396D3*
Y37396D3*
Y38396D3*
Y39396D3*
Y40396D3*
Y41396D3*
Y42396D3*
Y43396D3*
Y44396D3*
Y45396D3*
Y46396D3*
Y47396D3*
Y48396D3*
Y49396D3*
X66133D3*
Y48396D3*
Y47396D3*
Y46396D3*
Y45396D3*
Y44396D3*
Y43396D3*
Y42396D3*
Y41396D3*
Y40396D3*
Y39396D3*
Y38396D3*
Y37396D3*
Y36396D3*
Y35396D3*
Y34396D3*
Y33396D3*
Y32396D3*
Y31396D3*
D20*
Y30396D3*
D19*
X65133D3*
Y31396D3*
Y32396D3*
Y33396D3*
Y34396D3*
Y35396D3*
Y36396D3*
Y37396D3*
Y38396D3*
Y39396D3*
Y40396D3*
Y41396D3*
Y42396D3*
Y43396D3*
Y44396D3*
Y45396D3*
Y46396D3*
Y47396D3*
Y48396D3*
Y49396D3*
D20*
X57133Y16396D3*
D19*
Y15396D3*
Y14396D3*
Y13396D3*
Y12396D3*
Y11396D3*
Y10396D3*
Y9396D3*
Y8396D3*
Y7396D3*
X58133D3*
Y8396D3*
Y9396D3*
Y10396D3*
Y11396D3*
Y12396D3*
Y13396D3*
Y14396D3*
Y15396D3*
Y16396D3*
D20*
X65133D3*
D19*
Y15396D3*
Y14396D3*
Y13396D3*
Y12396D3*
Y11396D3*
Y10396D3*
Y9396D3*
Y8396D3*
Y7396D3*
X66133D3*
Y8396D3*
Y9396D3*
Y10396D3*
Y11396D3*
Y12396D3*
Y13396D3*
Y14396D3*
Y15396D3*
Y16396D3*
X58133Y21396D3*
X57133D3*
Y22396D3*
X58133D3*
X57133Y23396D3*
X58133D3*
X57133Y24396D3*
X58133D3*
Y25396D3*
D20*
X57133D3*
D19*
X66133Y21396D3*
X65133D3*
Y22396D3*
X66133D3*
X65133Y23396D3*
X66133D3*
X65133Y24396D3*
X66133D3*
Y25396D3*
D20*
X65133D3*
D19*
X74133Y49396D3*
Y48396D3*
Y47396D3*
Y46396D3*
Y45396D3*
Y44396D3*
Y43396D3*
Y42396D3*
Y41396D3*
Y40396D3*
Y39396D3*
Y38396D3*
Y37396D3*
Y36396D3*
Y35396D3*
Y34396D3*
Y33396D3*
Y32396D3*
Y31396D3*
D20*
Y30396D3*
D19*
X73133D3*
Y31396D3*
Y32396D3*
Y33396D3*
Y34396D3*
Y35396D3*
Y36396D3*
Y37396D3*
Y38396D3*
Y39396D3*
Y40396D3*
Y41396D3*
Y42396D3*
Y43396D3*
Y44396D3*
Y45396D3*
Y46396D3*
Y47396D3*
Y48396D3*
Y49396D3*
D20*
X81133Y16396D3*
D19*
Y15396D3*
Y14396D3*
Y13396D3*
Y12396D3*
Y11396D3*
Y10396D3*
Y9396D3*
Y8396D3*
Y7396D3*
X82133D3*
Y8396D3*
Y9396D3*
Y10396D3*
Y11396D3*
Y12396D3*
Y13396D3*
Y14396D3*
Y15396D3*
Y16396D3*
X74133Y21396D3*
X73133D3*
Y22396D3*
X74133D3*
X73133Y23396D3*
X74133D3*
X73133Y24396D3*
X74133D3*
Y25396D3*
D20*
X73133D3*
D21*
X8133Y49896D3*
Y52896D3*
X54133Y29896D3*
Y26896D3*
X52633D3*
Y29896D3*
X22633Y21396D3*
Y18396D3*
X17633Y23396D3*
X20633D3*
D22*
X25633Y27896D3*
Y30896D3*
D21*
X9633Y28896D3*
Y25896D3*
X11133Y28896D3*
Y25896D3*
X33133Y8396D3*
X30133D3*
X12633Y28896D3*
Y25896D3*
X14133Y28896D3*
Y25896D3*
X15633D3*
Y28896D3*
X18633D3*
Y25896D3*
X17133Y28896D3*
Y25896D3*
X33133Y6396D3*
X30133D3*
D22*
X8133Y28896D3*
Y25896D3*
D21*
X51133Y26896D3*
Y29896D3*
X33133Y12396D3*
X30133D3*
D23*
X9678Y21942D3*
D24*
X7587D3*
D17*
X43633Y29396D3*
D18*
X45483D3*
X47333D3*
D17*
X28633D3*
D18*
X30483D3*
X32333D3*
D21*
X7633Y39896D3*
Y38896D3*
Y37896D3*
Y36896D3*
Y35896D3*
Y34896D3*
Y33896D3*
Y32896D3*
Y31896D3*
X8633Y30896D3*
X9633D3*
X10633D3*
X11633D3*
X12633D3*
X13633D3*
X14633D3*
X15633D3*
X16633D3*
X17633Y31896D3*
Y32896D3*
Y33896D3*
Y34896D3*
Y35896D3*
Y36896D3*
Y37896D3*
Y38896D3*
Y39896D3*
X16633Y40896D3*
X15633D3*
X14633D3*
X13633D3*
X12633D3*
X11633D3*
X10633D3*
X9633D3*
X8633D3*
Y38896D3*
Y37896D3*
Y36896D3*
Y35896D3*
Y34896D3*
Y33896D3*
Y32896D3*
X9633Y31896D3*
X10633D3*
X11633D3*
X12633D3*
X13633D3*
X14633D3*
X15633D3*
X16633Y32896D3*
Y33896D3*
Y34896D3*
Y35896D3*
Y36896D3*
Y37896D3*
Y38896D3*
X15633Y39896D3*
X14633D3*
X13633D3*
X12633D3*
X11633D3*
X10633D3*
X9633D3*
X8633D3*
X16633D3*
Y31896D3*
X8633D3*
D25*
X17633Y21396D3*
D22*
Y20396D3*
Y19396D3*
Y18396D3*
X20633D3*
Y19396D3*
Y20396D3*
Y21396D3*
D25*
X25633Y23396D3*
D22*
Y22396D3*
Y21396D3*
Y20396D3*
Y19396D3*
Y18396D3*
Y17396D3*
X28625D3*
Y18396D3*
Y19396D3*
Y20396D3*
Y21396D3*
Y22396D3*
Y23396D3*
D25*
X51133D3*
D22*
Y22396D3*
Y21396D3*
Y20396D3*
Y19396D3*
Y18396D3*
Y17396D3*
X54125D3*
Y18396D3*
Y19396D3*
Y20396D3*
Y21396D3*
Y22396D3*
Y23396D3*
D25*
X31133D3*
D22*
Y22396D3*
Y21396D3*
Y20396D3*
Y19396D3*
Y18396D3*
Y17396D3*
Y16396D3*
X34125D3*
Y17396D3*
Y18396D3*
Y19396D3*
Y20396D3*
Y21396D3*
Y22396D3*
Y23396D3*
D25*
X36133D3*
D22*
Y22396D3*
Y21396D3*
Y20396D3*
Y19396D3*
Y18396D3*
Y17396D3*
X39125D3*
Y18396D3*
Y19396D3*
Y20396D3*
Y21396D3*
Y22396D3*
Y23396D3*
D25*
X22633Y48396D3*
D22*
Y47396D3*
Y46396D3*
Y45396D3*
Y44396D3*
Y43396D3*
Y42396D3*
Y41396D3*
Y40396D3*
Y39396D3*
Y38396D3*
Y37396D3*
Y36396D3*
Y35396D3*
Y34396D3*
Y33396D3*
X28617D3*
Y34396D3*
Y35396D3*
Y36396D3*
Y37396D3*
Y38396D3*
Y39396D3*
Y40396D3*
Y41396D3*
Y42396D3*
Y43396D3*
Y44396D3*
Y45396D3*
Y46396D3*
Y47396D3*
Y48396D3*
D25*
X31133D3*
D22*
Y47396D3*
Y46396D3*
Y45396D3*
Y44396D3*
Y43396D3*
Y42396D3*
Y41396D3*
Y40396D3*
Y39396D3*
Y38396D3*
Y37396D3*
Y36396D3*
Y35396D3*
Y34396D3*
Y33396D3*
X37117D3*
Y34396D3*
Y35396D3*
Y36396D3*
Y37396D3*
Y38396D3*
Y39396D3*
Y40396D3*
Y41396D3*
Y42396D3*
Y43396D3*
Y44396D3*
Y45396D3*
Y46396D3*
Y47396D3*
Y48396D3*
D25*
X46133Y23396D3*
D22*
Y22396D3*
Y21396D3*
Y20396D3*
Y19396D3*
Y18396D3*
Y17396D3*
X49125D3*
Y18396D3*
Y19396D3*
Y20396D3*
Y21396D3*
Y22396D3*
Y23396D3*
D25*
X16133Y52896D3*
D22*
X15133D3*
X14133D3*
X13133D3*
X12133D3*
X11133D3*
X10133D3*
Y49904D3*
X11133D3*
X12133D3*
X13133D3*
X14133D3*
X15133D3*
X16133D3*
D25*
X39633Y48396D3*
D22*
Y47396D3*
Y46396D3*
Y45396D3*
Y44396D3*
Y43396D3*
Y42396D3*
Y41396D3*
Y40396D3*
Y39396D3*
Y38396D3*
Y37396D3*
Y36396D3*
Y35396D3*
Y34396D3*
Y33396D3*
X45617D3*
Y34396D3*
Y35396D3*
Y36396D3*
Y37396D3*
Y38396D3*
Y39396D3*
Y40396D3*
Y41396D3*
Y42396D3*
Y43396D3*
Y44396D3*
Y45396D3*
Y46396D3*
Y47396D3*
Y48396D3*
D25*
X48133D3*
D22*
Y47396D3*
Y46396D3*
Y45396D3*
Y44396D3*
Y43396D3*
Y42396D3*
Y41396D3*
Y40396D3*
Y39396D3*
Y38396D3*
Y37396D3*
Y36396D3*
Y35396D3*
Y34396D3*
Y33396D3*
X54117D3*
Y34396D3*
Y35396D3*
Y36396D3*
Y37396D3*
Y38396D3*
Y39396D3*
Y40396D3*
Y41396D3*
Y42396D3*
Y43396D3*
Y44396D3*
Y45396D3*
Y46396D3*
Y47396D3*
Y48396D3*
D25*
X36133Y12896D3*
D22*
Y11896D3*
Y10896D3*
Y9896D3*
Y8896D3*
Y7896D3*
Y6896D3*
Y5896D3*
X39125D3*
Y6896D3*
Y7896D3*
Y8896D3*
Y9896D3*
Y10896D3*
Y11896D3*
Y12896D3*
D25*
X41133Y12396D3*
D22*
Y11396D3*
Y10396D3*
Y9396D3*
Y8396D3*
Y7396D3*
Y6396D3*
X44125D3*
Y7396D3*
Y8396D3*
Y9396D3*
Y10396D3*
Y11396D3*
Y12396D3*
D25*
X46133D3*
D22*
Y11396D3*
Y10396D3*
Y9396D3*
Y8396D3*
Y7396D3*
Y6396D3*
X49125D3*
Y7396D3*
Y8396D3*
Y9396D3*
Y10396D3*
Y11396D3*
Y12396D3*
D25*
X41133Y23396D3*
D22*
Y22396D3*
Y21396D3*
Y20396D3*
Y19396D3*
Y18396D3*
Y17396D3*
X44125D3*
Y18396D3*
Y19396D3*
Y20396D3*
Y21396D3*
Y22396D3*
Y23396D3*
D25*
X51133Y12396D3*
D22*
Y11396D3*
Y10396D3*
Y9396D3*
Y8396D3*
Y7396D3*
Y6396D3*
X54125D3*
Y7396D3*
Y8396D3*
Y9396D3*
Y10396D3*
Y11396D3*
Y12396D3*
D25*
X8633Y43896D3*
D22*
X14633D3*
Y46896D3*
X8633D3*
D23*
X25633Y11396D3*
D24*
X23979D3*
X22325D3*
X20672D3*
X19018D3*
X17365D3*
X15711D3*
X14058D3*
X12404D3*
X10751D3*
X9097D3*
X7444D3*
Y13562D3*
X9097D3*
X10751D3*
X12404D3*
X14058D3*
X15711D3*
X17365D3*
X19018D3*
X20672D3*
X22325D3*
X23979D3*
X25633D3*
D21*
X33133Y10396D3*
X30133D3*
M02*
