G04 DipTrace 2.3.1.0*
%INPerif_Top.gbr*%
%MOIN*%
%ADD13C,0.013*%
%ADD14C,0.0591*%
%ADD15C,0.06*%
%ADD16R,0.06X0.06*%
%ADD17C,0.05*%
%ADD18C,0.05*%
%ADD19C,0.048*%
%ADD20C,0.063*%
%ADD21R,0.063X0.063*%
%ADD22R,0.0591X0.0591*%
%ADD23C,0.0591*%
%ADD25R,0.0866X0.0866*%
%ADD26C,0.0866*%
%ADD27C,0.04*%
%FSLAX44Y44*%
G04*
G70*
G90*
G75*
G01*
%LNTop*%
%LPD*%
X12437Y33937D2*
D13*
X6437D1*
X13437Y38937D2*
X12947Y39427D1*
X6192D1*
X5932Y39687D1*
Y57442D1*
X5437Y57937D1*
X7904Y41338D2*
X9304Y39937D1*
X12437D1*
X22937Y51437D2*
Y56125D1*
X22677Y56385D1*
X14489D1*
X12437Y58437D1*
X31437Y37937D2*
X30947Y38427D1*
X24187D1*
X23927Y38687D1*
Y46447D1*
X23437Y46937D1*
X32437Y14937D2*
X32932Y14442D1*
Y11692D1*
X32672Y11432D1*
X28911D1*
X27525Y12818D1*
X24638D1*
X24128Y12309D1*
X31939Y32048D2*
X33419D1*
X33679Y31788D1*
Y23687D1*
X33419Y23427D1*
X32440D1*
X32426Y23441D1*
X31437Y33937D2*
X30437D1*
X32426Y23441D2*
D3*
X30437Y33937D2*
X15445D1*
X30437Y37937D2*
X21697D1*
X21437Y38197D1*
Y45937D1*
X24937Y6437D2*
X25442Y5932D1*
X30442D1*
X30937Y5437D1*
X22437Y57437D2*
X26437D1*
X27437Y58437D1*
X9937Y20937D2*
X12937D1*
X11059Y49749D2*
X7914D1*
X7726Y49937D1*
X6437D1*
X19972Y12402D2*
X22227D1*
X22855Y11774D1*
X24593D1*
X25128Y12309D1*
X31437Y14937D2*
X30436D1*
X30409Y14964D1*
X26937D1*
X11122Y53937D2*
X11632Y54447D1*
X19927D1*
X20437Y53937D1*
X21437Y45937D2*
X20928Y46446D1*
Y47899D1*
X15437Y18937D2*
X15927Y19427D1*
X20447D1*
X20937Y18937D1*
X12937Y20937D2*
X14937Y18937D1*
X15437D1*
X26937Y14964D2*
Y16437D1*
X19937Y51437D2*
X21207Y52707D1*
Y55261D1*
X20947Y55521D1*
X14353D1*
X11437Y58437D1*
X19921Y32828D2*
X19364Y32270D1*
Y31010D1*
X21437Y28937D1*
X23929Y23937D2*
X22281Y22289D1*
Y22281D1*
X20937Y20937D1*
X21935Y29417D2*
Y30262D1*
X20441Y31139D2*
X30055D1*
X30705Y30489D1*
X19759Y31561D2*
X33159D1*
X33419Y31301D1*
Y24687D1*
X33159Y24427D1*
X32031D1*
X31771Y24167D1*
Y18099D1*
X32031Y17839D1*
X32931D1*
X32946Y17854D1*
X15437Y24937D2*
X15947Y24427D1*
X19447D1*
X20937Y22937D1*
X25437Y46937D2*
X24927Y46427D1*
Y44784D1*
X24891Y44748D1*
X21415Y26462D2*
X22667D1*
X22927Y26721D1*
Y29190D1*
X23187Y29450D1*
X24891D1*
X20937Y22937D2*
X20446Y22446D1*
Y20687D1*
X20706Y20427D1*
X21167D1*
X21427Y20167D1*
Y13692D1*
X21687Y13432D1*
X30942D1*
X31437Y12937D1*
X24891Y44748D2*
D3*
X29438Y46859D2*
X33920D1*
X29438Y47671D2*
X29422Y47687D1*
X25187D1*
X24437Y46937D1*
X20937Y24937D2*
X21447Y24427D1*
X25187D1*
X25447Y24167D1*
Y14692D1*
X25707Y14432D1*
X31672D1*
X31932Y14172D1*
Y12432D1*
X31437Y11937D1*
X14984Y23441D2*
X17290D1*
X13937Y51437D2*
X16435Y48939D1*
X22177D1*
X22437Y48680D1*
Y46937D1*
X15937Y51437D2*
X16699Y50675D1*
X22667D1*
X22927Y50415D1*
Y46427D1*
X22437Y45937D1*
X18429Y23937D2*
X17685Y23193D1*
Y23185D1*
X15437Y20937D1*
Y23937D2*
X10937D1*
X9937Y24937D1*
X18437Y27937D2*
X17412Y26912D1*
X7640D1*
X7380Y26652D1*
Y22692D1*
X7121Y22432D1*
X5932D1*
X5437Y21937D1*
X13437Y32937D2*
X12942Y33432D1*
X5942D1*
X5437Y33937D1*
X12437Y32937D2*
X6437D1*
X17437Y28937D2*
X6192D1*
X5932Y29197D1*
Y32442D1*
X5437Y32937D1*
X18437Y28937D2*
X17927Y28427D1*
X6192D1*
X5932Y28167D1*
Y26432D1*
X5437Y25937D1*
X19437Y28937D2*
X19927Y28447D1*
Y25947D1*
X19667Y25687D1*
X8994D1*
X8734Y25427D1*
Y20234D1*
X6437Y17937D1*
X19437Y27937D2*
X17447Y25947D1*
X8734D1*
X8474Y25687D1*
Y21692D1*
X8214Y21432D1*
X5932D1*
X5437Y20937D1*
X31437Y36937D2*
X30947Y37427D1*
X7927D1*
X6437Y35937D1*
X30437Y36937D2*
X17106D1*
X15601Y35432D1*
X5942D1*
X5437Y35937D1*
X31437D2*
X30927Y35427D1*
Y34692D1*
X30667Y34432D1*
X6942D1*
X6437Y34937D1*
X18437Y53937D2*
X16437Y51937D1*
X6437D1*
X21437Y57437D2*
X22437Y58437D1*
X26437D1*
X31939Y7071D2*
X28171D1*
X32929Y25937D2*
X32419Y25427D1*
X27060D1*
X26320Y24687D1*
X25594D1*
X24858Y25422D1*
X24422D1*
X24417Y25427D1*
X24224D1*
X23929Y25132D1*
Y24937D1*
X13937Y8437D2*
X11937D1*
X26580Y17107D2*
Y24427D1*
X26320Y24687D1*
X18429Y24937D2*
X17939Y25427D1*
X13427D1*
X12937Y24937D1*
X23929D2*
X23439Y25427D1*
X18919D1*
X18429Y24937D1*
X23929D2*
D3*
X11937Y8437D2*
X11427Y7927D1*
X6947D1*
X6437Y8437D1*
X16905Y7595D2*
X21779D1*
X22937Y6437D1*
X32929Y22937D2*
X33419Y22447D1*
Y8521D1*
X33159Y8262D1*
X27762D1*
X25937Y6437D1*
X29937Y23937D2*
X28437D1*
X27437Y22937D1*
X8937Y8437D2*
X7132Y10242D1*
X6632D1*
X5937Y10937D1*
X13937Y5437D2*
X11937D1*
Y6437D2*
X11427Y5927D1*
X6927D1*
X6437Y5437D1*
X22844Y8792D2*
X23432Y8205D1*
Y5202D1*
X23692Y4942D1*
X31172D1*
X31432Y5202D1*
Y5942D1*
X30937Y6437D1*
D27*
X7904Y41338D3*
X32426Y23441D3*
X31939Y32048D3*
X15439Y33932D3*
X20928Y47899D3*
X26937Y14964D3*
X19921Y32828D3*
X21935Y30262D3*
Y29417D3*
X30705Y30489D3*
X20441Y31139D3*
X32946Y17854D3*
X19759Y31561D3*
X24891Y44748D3*
Y29450D3*
X21415Y26462D3*
X33920Y46859D3*
X29438D3*
Y47671D3*
X17290Y23441D3*
X14984D3*
X28171Y7071D3*
X31939D3*
X26580Y17107D3*
X16901Y7591D3*
X22844Y8792D3*
D14*
X12437Y33937D3*
Y34937D3*
Y35937D3*
Y36937D3*
Y37937D3*
Y38937D3*
Y39937D3*
Y40937D3*
Y41937D3*
Y32937D3*
X13437D3*
Y33937D3*
Y34937D3*
Y35937D3*
Y36937D3*
Y37937D3*
Y38937D3*
Y39937D3*
Y40937D3*
Y41937D3*
X31437Y32937D3*
Y33937D3*
Y34937D3*
Y35937D3*
Y36937D3*
Y37937D3*
Y38937D3*
Y39937D3*
Y40937D3*
Y41937D3*
X30437Y32937D3*
Y33937D3*
Y34937D3*
Y35937D3*
Y36937D3*
Y37937D3*
Y38937D3*
Y39937D3*
Y40937D3*
Y41937D3*
X17437Y45937D3*
X18437D3*
X19437D3*
X20437D3*
X21437D3*
X22437D3*
X23437D3*
X24437D3*
X25437D3*
X26437D3*
X18437Y46937D3*
X19437D3*
X20437D3*
X21437D3*
X22437D3*
X23437D3*
X24437D3*
X25437D3*
X26437D3*
X17437D3*
Y27937D3*
X18437D3*
X19437D3*
X20437D3*
X21437D3*
X22437D3*
X23437D3*
X24437D3*
X25437D3*
X26437D3*
X17437Y28937D3*
X18437D3*
X19437D3*
X20437D3*
X21437D3*
X22437D3*
X23437D3*
X24437D3*
X25437D3*
X26437D3*
D15*
X5437Y59937D3*
Y58937D3*
Y57937D3*
Y56937D3*
Y55937D3*
Y54937D3*
Y53937D3*
Y52937D3*
Y51937D3*
Y50937D3*
Y49937D3*
Y48937D3*
Y47937D3*
Y46937D3*
Y45937D3*
Y44937D3*
Y43937D3*
Y42937D3*
Y41937D3*
D16*
Y40937D3*
D15*
X6437D3*
Y41937D3*
Y42937D3*
Y43937D3*
Y44937D3*
Y45937D3*
Y46937D3*
Y47937D3*
Y48937D3*
Y49937D3*
Y50937D3*
Y51937D3*
Y52937D3*
Y53937D3*
Y54937D3*
Y55937D3*
Y56937D3*
Y57937D3*
Y58937D3*
Y59937D3*
X32437Y10937D3*
X31437D3*
Y11937D3*
X32437D3*
X31437Y12937D3*
X32437D3*
X31437Y13937D3*
X32437D3*
Y14937D3*
D16*
X31437D3*
X16437Y59437D3*
D15*
X15437D3*
X14437D3*
X13437D3*
X12437D3*
X11437D3*
X10437D3*
Y58437D3*
X11437D3*
X12437D3*
X13437D3*
X14437D3*
X15437D3*
X16437D3*
D17*
X22937Y51437D3*
D18*
X19937D3*
D19*
X13937D3*
X15937D3*
D20*
X12059Y49749D3*
D21*
X11059D3*
D20*
X12122Y53937D3*
D21*
X11122D3*
D22*
X9937Y21937D3*
D23*
Y20937D3*
Y19937D3*
Y18937D3*
X12937D3*
Y19937D3*
Y20937D3*
Y21937D3*
D22*
X15437Y24937D3*
D23*
Y23937D3*
Y22937D3*
Y21937D3*
Y20937D3*
Y19937D3*
Y18937D3*
X18429D3*
Y19937D3*
Y20937D3*
Y21937D3*
Y22937D3*
Y23937D3*
Y24937D3*
D14*
X12937D3*
D23*
X9937D3*
D14*
X12937Y27937D3*
D23*
X9937D3*
D20*
X24937Y9437D3*
D21*
X23937D3*
D22*
X29937Y25937D3*
D23*
Y24937D3*
Y23937D3*
Y22937D3*
Y21937D3*
Y20937D3*
Y19937D3*
Y18937D3*
X32929D3*
Y19937D3*
Y20937D3*
Y21937D3*
Y22937D3*
Y23937D3*
Y24937D3*
Y25937D3*
D22*
X8937Y8437D3*
D23*
Y7437D3*
Y6437D3*
Y5437D3*
X11937D3*
Y6437D3*
Y7437D3*
Y8437D3*
D22*
X20937Y24937D3*
D23*
Y23937D3*
Y22937D3*
Y21937D3*
Y20937D3*
Y19937D3*
Y18937D3*
X23929D3*
Y19937D3*
Y20937D3*
Y21937D3*
Y22937D3*
Y23937D3*
Y24937D3*
D25*
X11902Y12402D3*
D26*
X19972D3*
D19*
X5937Y10937D3*
X6937D3*
D16*
X6437Y26937D3*
D15*
Y25937D3*
Y24937D3*
Y23937D3*
Y22937D3*
Y21937D3*
Y20937D3*
Y19937D3*
Y18937D3*
Y17937D3*
X5437D3*
Y18937D3*
Y19937D3*
Y20937D3*
Y21937D3*
Y22937D3*
Y23937D3*
Y24937D3*
Y25937D3*
Y26937D3*
D16*
X31937Y6437D3*
D15*
X30937D3*
X29937D3*
X28937D3*
X27937D3*
X26937D3*
X25937D3*
X24937D3*
X23937D3*
X22937D3*
Y5437D3*
X23937D3*
X24937D3*
X25937D3*
X26937D3*
X27937D3*
X28937D3*
X29937D3*
X30937D3*
X31937D3*
D21*
X23937Y15437D3*
D20*
X24937D3*
D21*
X26937Y16437D3*
D20*
X27937D3*
D21*
X27437Y20437D3*
D20*
Y19437D3*
D21*
Y23937D3*
D20*
Y22937D3*
X22437Y57437D3*
D21*
X21437D3*
D20*
X20437Y53937D3*
D21*
X18437D3*
D14*
X6437Y8437D3*
D23*
Y5437D3*
D14*
X13937Y8437D3*
D23*
Y5437D3*
D16*
X26437Y58437D3*
D15*
X27437D3*
X28437D3*
X29437D3*
X30437D3*
X31437D3*
X32437D3*
Y59437D3*
X31437D3*
X30437D3*
X29437D3*
X28437D3*
X27437D3*
X26437D3*
X5437Y31937D3*
X6437D3*
Y32937D3*
X5437D3*
X6437Y33937D3*
X5437D3*
X6437Y34937D3*
X5437D3*
Y35937D3*
D16*
X6437D3*
D20*
X25128Y12309D3*
D21*
X24128D3*
M02*
