G04 DipTrace 2.3.1.0*
%INPerif_Bottom.gbr*%
%MOIN*%
%ADD13C,0.013*%
%ADD14C,0.0591*%
%ADD15C,0.06*%
%ADD16R,0.06X0.06*%
%ADD17C,0.05*%
%ADD18C,0.05*%
%ADD19C,0.048*%
%ADD20C,0.063*%
%ADD21R,0.063X0.063*%
%ADD22R,0.0591X0.0591*%
%ADD23C,0.0591*%
%ADD25R,0.0866X0.0866*%
%ADD26C,0.0866*%
%ADD27C,0.04*%
%FSLAX44Y44*%
G04*
G70*
G90*
G75*
G01*
%LNBottom*%
%LPD*%
X12437Y36937D2*
D13*
X4457D1*
X4198Y37197D1*
Y58698D1*
X5437Y59937D1*
X13437Y37937D2*
X13927Y38427D1*
Y41167D1*
X13667Y41427D1*
X9392D1*
X9132Y41687D1*
Y57242D1*
X6437Y59937D1*
X12437Y38937D2*
X4717D1*
X4457Y39197D1*
Y57957D1*
X5437Y58937D1*
X7904Y41338D2*
Y57470D1*
X6437Y58937D1*
X5437Y56937D2*
X4717Y56217D1*
Y39687D1*
X4977Y39427D1*
X12927D1*
X13437Y39937D1*
X6437Y57937D2*
X6932Y57442D1*
Y41197D1*
X7192Y40937D1*
X12437D1*
X5437Y55937D2*
X5932Y55442D1*
Y40687D1*
X6192Y40427D1*
X12927D1*
X13437Y40937D1*
Y36937D2*
X14335Y36039D1*
Y33932D1*
X13830Y33427D1*
X8211D1*
X7951Y33167D1*
Y23451D1*
X6437Y21937D1*
X31437Y37937D2*
X30927Y37427D1*
Y35427D1*
X30437Y34937D1*
X23437Y46937D2*
Y50937D1*
X22937Y51437D1*
X32437Y14937D2*
Y23430D1*
X32426Y23441D1*
X31437Y33937D2*
X31939Y33435D1*
Y32048D1*
X14335Y33932D2*
X15439D1*
X30437Y34937D2*
Y33937D1*
X13437Y58437D2*
X11122Y56122D1*
Y53937D1*
X19972Y12402D2*
X20937Y13366D1*
Y18937D1*
X9937Y21937D2*
Y20937D1*
X22437Y57437D2*
Y55937D1*
X20437Y53937D1*
X24937Y6437D2*
Y9437D1*
X31437Y14937D2*
Y24677D1*
X31697Y24937D1*
Y31101D1*
X30927Y31871D1*
Y34213D1*
X31437Y34722D1*
Y34937D1*
X31697Y24937D2*
X32929D1*
X11059Y49749D2*
Y46300D1*
X14187Y43172D1*
Y37687D1*
X13927Y37427D1*
X12947D1*
X12437Y37937D1*
X11122Y53937D2*
Y50810D1*
X11059Y50747D1*
Y49749D1*
X20937Y18937D2*
X21927Y19927D1*
Y28427D1*
X22437Y28937D1*
X9937Y18937D2*
Y6437D1*
X8937Y5437D1*
X9937Y19937D2*
Y18937D1*
Y20937D2*
Y19937D1*
X20928Y47899D2*
D3*
X20437Y53937D2*
Y47885D1*
X20728D1*
X20742Y47899D1*
X20928D1*
X25128Y12309D2*
X26937Y14118D1*
Y14964D1*
X24937Y9437D2*
Y10772D1*
X25128Y10962D1*
Y12309D1*
X31437Y34937D2*
X32187Y35687D1*
Y38167D1*
X31927Y38427D1*
X30927D1*
X30437Y37937D1*
X31437Y34937D2*
D3*
X19937Y51437D2*
Y32844D1*
X19921Y32828D1*
X23437Y45937D2*
X23927Y46427D1*
Y58672D1*
X23667Y58932D1*
X14932D1*
X14437Y58437D1*
X21935Y30262D2*
Y46439D1*
X21437Y46937D1*
X23929Y23937D2*
X22927Y24939D1*
Y29167D1*
X22667Y29427D1*
X21945D1*
X21935Y29417D1*
X21437Y46937D2*
Y51627D1*
X22947Y53137D1*
Y57687D1*
X22687Y57947D1*
X17057D1*
X16807Y57697D1*
X16177D1*
X15437Y58437D1*
X30705Y30489D2*
Y14669D1*
X31437Y13937D1*
X20437Y31143D2*
Y45937D1*
X22437Y27937D2*
Y5202D1*
X22697Y4942D1*
X24172D1*
X24432Y5202D1*
Y7451D1*
X23937Y7946D1*
Y9437D1*
X32946Y17854D2*
Y14446D1*
X32437Y13937D1*
X19759Y31561D2*
X19437Y31883D1*
Y45937D1*
X25437Y46937D2*
Y58672D1*
X25697Y58932D1*
X29942D1*
X30437Y58437D1*
X24891Y29450D2*
Y44748D1*
X20937Y22937D2*
X20447Y23427D1*
Y24167D1*
X20707Y24427D1*
X21427D1*
Y26450D1*
X21415Y26462D1*
X33920Y46859D2*
D3*
X29437Y58437D2*
Y47672D1*
X33920Y46859D2*
X33939Y46841D1*
Y14439D1*
X32437Y12937D1*
X29438Y47671D2*
Y46859D1*
X28437Y58437D2*
Y46687D1*
X28177Y46427D1*
X24927D1*
X24437Y45937D1*
X14984Y23441D2*
X15237D1*
X15437Y23241D1*
Y22937D1*
X20937Y24937D2*
X20187D1*
X19927Y24677D1*
Y23701D1*
X19667Y23441D1*
X17290D1*
X24437Y45937D2*
Y30072D1*
X24177Y29812D1*
X21197D1*
X20937Y29552D1*
Y24937D1*
X30437Y40937D2*
X30927Y41427D1*
X33419D1*
X33679Y41167D1*
Y21687D1*
X32929Y20937D1*
X31437Y40937D2*
X33419Y38955D1*
Y22427D1*
X32929Y21937D1*
X13937Y51437D2*
Y52121D1*
X12122Y53937D1*
X15937Y51437D2*
X14249Y49749D1*
X12059D1*
X18429Y23937D2*
X18927Y24435D1*
Y30397D1*
X19187Y30657D1*
X20667D1*
X20927Y30917D1*
Y46447D1*
X20437Y46937D1*
X15437Y23937D2*
X13687D1*
X13427Y23677D1*
Y20427D1*
X12937Y19937D1*
Y18937D2*
X14289Y20289D1*
Y20789D1*
X15437Y21937D1*
X15927Y22427D1*
Y28427D1*
X15667Y28687D1*
X10687D1*
X9937Y27937D1*
X26437D2*
Y22687D1*
X26177Y22427D1*
X23499D1*
X23239Y22167D1*
Y8494D1*
X23432Y8301D1*
Y5932D1*
X22937Y5437D1*
X26437Y28937D2*
Y40938D1*
X31437Y45938D1*
Y58437D1*
X12937Y27937D2*
Y24937D1*
X21437Y57437D2*
X18697D1*
X18437Y57177D1*
Y53937D1*
X26580Y17107D2*
X25197D1*
X24937Y16847D1*
Y15437D1*
X12937Y21937D2*
X12187Y21187D1*
Y15661D1*
X12789Y15059D1*
Y9289D1*
X11937Y8437D1*
X12937Y24937D2*
Y21937D1*
X18437Y53937D2*
X18947Y53427D1*
Y33189D1*
X17927Y32169D1*
Y25439D1*
X18429Y24937D1*
X24937Y15437D2*
X27911D1*
X28171Y15177D1*
Y7071D1*
X31937Y7069D2*
Y6437D1*
X16895Y7596D2*
Y46167D1*
X17155Y46427D1*
X17927D1*
X18437Y46937D1*
X29937Y20937D2*
X28726Y19726D1*
Y17226D1*
X27937Y16437D1*
X29937Y24937D2*
X28207D1*
X27947Y24677D1*
Y22447D1*
X26697Y21197D1*
Y20545D1*
X23937Y17785D1*
Y15437D1*
X32929Y23937D2*
X32192D1*
X31932Y23677D1*
Y8886D1*
X32432Y8386D1*
Y5202D1*
X32172Y4942D1*
X27432D1*
X26937Y5437D1*
X29937Y25937D2*
X27697D1*
X27437Y25677D1*
Y23937D1*
X29937Y22937D2*
X28467D1*
X28207Y22677D1*
Y21207D1*
X27437Y20437D1*
X29937Y21937D2*
X28467Y20467D1*
Y19697D1*
X28207Y19437D1*
X27437D1*
X8937Y6437D2*
X8187Y5687D1*
Y5207D1*
X8447Y4947D1*
X10144D1*
X10404Y5207D1*
Y10904D1*
X11902Y12402D1*
X8937Y7437D2*
X6937Y9437D1*
Y10937D1*
X13937Y5437D2*
X18919D1*
X19179Y5697D1*
Y21167D1*
X19439Y21427D1*
X21167D1*
X21427Y21687D1*
Y23447D1*
X20937Y23937D1*
X11937Y6437D2*
X18659D1*
X18919Y6697D1*
Y21677D1*
X19179Y21937D1*
X20937D1*
X25437Y28937D2*
X25947Y28427D1*
X30172D1*
X30432Y28167D1*
Y6192D1*
X30692Y5932D1*
X31442D1*
X31937Y5437D1*
X22844Y8792D2*
Y23167D1*
X23104Y23427D1*
X24177D1*
X24437Y23687D1*
Y27937D1*
D27*
X7904Y41338D3*
X32426Y23441D3*
X31939Y32048D3*
X15439Y33932D3*
X20928Y47899D3*
X26937Y14964D3*
X19921Y32828D3*
X21935Y30262D3*
Y29417D3*
X30705Y30489D3*
X20441Y31139D3*
X32946Y17854D3*
X19759Y31561D3*
X24891Y44748D3*
Y29450D3*
X21415Y26462D3*
X33920Y46859D3*
X29438D3*
Y47671D3*
X17290Y23441D3*
X14984D3*
X28171Y7071D3*
X31939D3*
X26580Y17107D3*
X16901Y7591D3*
X22844Y8792D3*
D14*
X12437Y33937D3*
Y34937D3*
Y35937D3*
Y36937D3*
Y37937D3*
Y38937D3*
Y39937D3*
Y40937D3*
Y41937D3*
Y32937D3*
X13437D3*
Y33937D3*
Y34937D3*
Y35937D3*
Y36937D3*
Y37937D3*
Y38937D3*
Y39937D3*
Y40937D3*
Y41937D3*
X31437Y32937D3*
Y33937D3*
Y34937D3*
Y35937D3*
Y36937D3*
Y37937D3*
Y38937D3*
Y39937D3*
Y40937D3*
Y41937D3*
X30437Y32937D3*
Y33937D3*
Y34937D3*
Y35937D3*
Y36937D3*
Y37937D3*
Y38937D3*
Y39937D3*
Y40937D3*
Y41937D3*
X17437Y45937D3*
X18437D3*
X19437D3*
X20437D3*
X21437D3*
X22437D3*
X23437D3*
X24437D3*
X25437D3*
X26437D3*
X18437Y46937D3*
X19437D3*
X20437D3*
X21437D3*
X22437D3*
X23437D3*
X24437D3*
X25437D3*
X26437D3*
X17437D3*
Y27937D3*
X18437D3*
X19437D3*
X20437D3*
X21437D3*
X22437D3*
X23437D3*
X24437D3*
X25437D3*
X26437D3*
X17437Y28937D3*
X18437D3*
X19437D3*
X20437D3*
X21437D3*
X22437D3*
X23437D3*
X24437D3*
X25437D3*
X26437D3*
D15*
X5437Y59937D3*
Y58937D3*
Y57937D3*
Y56937D3*
Y55937D3*
Y54937D3*
Y53937D3*
Y52937D3*
Y51937D3*
Y50937D3*
Y49937D3*
Y48937D3*
Y47937D3*
Y46937D3*
Y45937D3*
Y44937D3*
Y43937D3*
Y42937D3*
Y41937D3*
D16*
Y40937D3*
D15*
X6437D3*
Y41937D3*
Y42937D3*
Y43937D3*
Y44937D3*
Y45937D3*
Y46937D3*
Y47937D3*
Y48937D3*
Y49937D3*
Y50937D3*
Y51937D3*
Y52937D3*
Y53937D3*
Y54937D3*
Y55937D3*
Y56937D3*
Y57937D3*
Y58937D3*
Y59937D3*
X32437Y10937D3*
X31437D3*
Y11937D3*
X32437D3*
X31437Y12937D3*
X32437D3*
X31437Y13937D3*
X32437D3*
Y14937D3*
D16*
X31437D3*
X16437Y59437D3*
D15*
X15437D3*
X14437D3*
X13437D3*
X12437D3*
X11437D3*
X10437D3*
Y58437D3*
X11437D3*
X12437D3*
X13437D3*
X14437D3*
X15437D3*
X16437D3*
D17*
X22937Y51437D3*
D18*
X19937D3*
D19*
X13937D3*
X15937D3*
D20*
X12059Y49749D3*
D21*
X11059D3*
D20*
X12122Y53937D3*
D21*
X11122D3*
D22*
X9937Y21937D3*
D23*
Y20937D3*
Y19937D3*
Y18937D3*
X12937D3*
Y19937D3*
Y20937D3*
Y21937D3*
D22*
X15437Y24937D3*
D23*
Y23937D3*
Y22937D3*
Y21937D3*
Y20937D3*
Y19937D3*
Y18937D3*
X18429D3*
Y19937D3*
Y20937D3*
Y21937D3*
Y22937D3*
Y23937D3*
Y24937D3*
D14*
X12937D3*
D23*
X9937D3*
D14*
X12937Y27937D3*
D23*
X9937D3*
D20*
X24937Y9437D3*
D21*
X23937D3*
D22*
X29937Y25937D3*
D23*
Y24937D3*
Y23937D3*
Y22937D3*
Y21937D3*
Y20937D3*
Y19937D3*
Y18937D3*
X32929D3*
Y19937D3*
Y20937D3*
Y21937D3*
Y22937D3*
Y23937D3*
Y24937D3*
Y25937D3*
D22*
X8937Y8437D3*
D23*
Y7437D3*
Y6437D3*
Y5437D3*
X11937D3*
Y6437D3*
Y7437D3*
Y8437D3*
D22*
X20937Y24937D3*
D23*
Y23937D3*
Y22937D3*
Y21937D3*
Y20937D3*
Y19937D3*
Y18937D3*
X23929D3*
Y19937D3*
Y20937D3*
Y21937D3*
Y22937D3*
Y23937D3*
Y24937D3*
D25*
X11902Y12402D3*
D26*
X19972D3*
D19*
X5937Y10937D3*
X6937D3*
D16*
X6437Y26937D3*
D15*
Y25937D3*
Y24937D3*
Y23937D3*
Y22937D3*
Y21937D3*
Y20937D3*
Y19937D3*
Y18937D3*
Y17937D3*
X5437D3*
Y18937D3*
Y19937D3*
Y20937D3*
Y21937D3*
Y22937D3*
Y23937D3*
Y24937D3*
Y25937D3*
Y26937D3*
D16*
X31937Y6437D3*
D15*
X30937D3*
X29937D3*
X28937D3*
X27937D3*
X26937D3*
X25937D3*
X24937D3*
X23937D3*
X22937D3*
Y5437D3*
X23937D3*
X24937D3*
X25937D3*
X26937D3*
X27937D3*
X28937D3*
X29937D3*
X30937D3*
X31937D3*
D21*
X23937Y15437D3*
D20*
X24937D3*
D21*
X26937Y16437D3*
D20*
X27937D3*
D21*
X27437Y20437D3*
D20*
Y19437D3*
D21*
Y23937D3*
D20*
Y22937D3*
X22437Y57437D3*
D21*
X21437D3*
D20*
X20437Y53937D3*
D21*
X18437D3*
D14*
X6437Y8437D3*
D23*
Y5437D3*
D14*
X13937Y8437D3*
D23*
Y5437D3*
D16*
X26437Y58437D3*
D15*
X27437D3*
X28437D3*
X29437D3*
X30437D3*
X31437D3*
X32437D3*
Y59437D3*
X31437D3*
X30437D3*
X29437D3*
X28437D3*
X27437D3*
X26437D3*
X5437Y31937D3*
X6437D3*
Y32937D3*
X5437D3*
X6437Y33937D3*
X5437D3*
X6437Y34937D3*
X5437D3*
Y35937D3*
D16*
X6437D3*
D20*
X25128Y12309D3*
D21*
X24128D3*
M02*
