M48
INCH
T01C0.0191
T02C0.022
T03C0.032
T04C0.0354
T05C0.038
T06C0.0394
T07C0.0591
%
T01
X+007904Y+041338
X+015439Y+033932
X+019921Y+032828
X+019759Y+031561
X+020441Y+031139
X+021935Y+030262
X+021935Y+029417
X+024891Y+029450
X+021415Y+026462
X+017290Y+023441
X+014984Y+023441
X+026580Y+017107
X+026937Y+014964
X+032946Y+017854
X+032426Y+023441
X+030705Y+030489
X+031939Y+032048
X+024891Y+044748
X+029438Y+046859
X+029438Y+047671
X+033920Y+046859
X+020928Y+047899
X+022844Y+008792
X+028171Y+007071
X+031939Y+007071
X+016901Y+007591
T02
X+022937Y+051437
X+019937Y+051437
T03
X+013937Y+051437
X+015937Y+051437
X+006937Y+010937
X+005937Y+010937
T04
X+012437Y+033937
X+012437Y+034937
X+012437Y+035937
X+012437Y+036937
X+012437Y+037937
X+012437Y+038937
X+012437Y+039937
X+012437Y+040937
X+012437Y+041937
X+013437Y+041937
X+013437Y+040937
X+013437Y+039937
X+013437Y+038937
X+013437Y+037937
X+013437Y+036937
X+013437Y+035937
X+013437Y+034937
X+013437Y+033937
X+013437Y+032937
X+012437Y+032937
X+012937Y+027937
X+012937Y+024937
X+015437Y+024937
X+015437Y+023937
X+015437Y+022937
X+015437Y+021937
X+015437Y+020937
X+015437Y+019937
X+015437Y+018937
X+012937Y+018937
X+012937Y+019937
X+012937Y+020937
X+012937Y+021937
X+009937Y+021937
X+009937Y+020937
X+009937Y+019937
X+009937Y+018937
X+009937Y+024937
X+009937Y+027937
X+017437Y+027937
X+017437Y+028937
X+018437Y+028937
X+018437Y+027937
X+019437Y+027937
X+019437Y+028937
X+020437Y+028937
X+020437Y+027937
X+021437Y+027937
X+021437Y+028937
X+022437Y+028937
X+022437Y+027937
X+023437Y+027937
X+023437Y+028937
X+024437Y+028937
X+024437Y+027937
X+025437Y+027937
X+025437Y+028937
X+026437Y+028937
X+026437Y+027937
X+023929Y+024937
X+023929Y+023937
X+023929Y+022937
X+023929Y+021937
X+023929Y+020937
X+023929Y+019937
X+023929Y+018937
X+020937Y+018937
X+020937Y+019937
X+020937Y+020937
X+020937Y+021937
X+020937Y+022937
X+020937Y+023937
X+020937Y+024937
X+018429Y+024937
X+018429Y+023937
X+018429Y+022937
X+018429Y+021937
X+018429Y+020937
X+018429Y+019937
X+018429Y+018937
X+023937Y+015437
X+024937Y+015437
X+026937Y+016437
X+027937Y+016437
X+027437Y+019437
X+027437Y+020437
X+027437Y+022937
X+027437Y+023937
X+029937Y+023937
X+029937Y+024937
X+029937Y+025937
X+032929Y+025937
X+032929Y+024937
X+032929Y+023937
X+032929Y+022937
X+032929Y+021937
X+032929Y+020937
X+032929Y+019937
X+032929Y+018937
X+029937Y+018937
X+029937Y+019937
X+029937Y+020937
X+029937Y+021937
X+029937Y+022937
X+030437Y+032937
X+031437Y+032937
X+031437Y+033937
X+030437Y+033937
X+030437Y+034937
X+031437Y+034937
X+031437Y+035937
X+030437Y+035937
X+030437Y+036937
X+031437Y+036937
X+031437Y+037937
X+030437Y+037937
X+030437Y+038937
X+031437Y+038937
X+031437Y+039937
X+030437Y+039937
X+030437Y+040937
X+031437Y+040937
X+031437Y+041937
X+030437Y+041937
X+026437Y+045937
X+026437Y+046937
X+025437Y+046937
X+025437Y+045937
X+024437Y+045937
X+024437Y+046937
X+023437Y+046937
X+023437Y+045937
X+022437Y+045937
X+022437Y+046937
X+021437Y+046937
X+021437Y+045937
X+020437Y+045937
X+020437Y+046937
X+019437Y+046937
X+019437Y+045937
X+018437Y+045937
X+017437Y+045937
X+017437Y+046937
X+018437Y+046937
X+018437Y+053937
X+020437Y+053937
X+013937Y+008437
X+011937Y+008437
X+011937Y+007437
X+011937Y+006437
X+011937Y+005437
X+013937Y+005437
X+008937Y+005437
X+008937Y+006437
X+008937Y+007437
X+008937Y+008437
X+006437Y+008437
X+006437Y+005437
T05
X+005437Y+059937
X+005437Y+058937
X+005437Y+057937
X+005437Y+056937
X+005437Y+055937
X+005437Y+054937
X+005437Y+053937
X+005437Y+052937
X+005437Y+051937
X+005437Y+050937
X+005437Y+049937
X+005437Y+048937
X+005437Y+047937
X+005437Y+046937
X+005437Y+045937
X+005437Y+044937
X+005437Y+043937
X+005437Y+042937
X+006437Y+042937
X+006437Y+043937
X+006437Y+044937
X+006437Y+045937
X+006437Y+046937
X+006437Y+047937
X+006437Y+048937
X+006437Y+049937
X+006437Y+050937
X+006437Y+051937
X+006437Y+052937
X+006437Y+053937
X+006437Y+054937
X+006437Y+055937
X+006437Y+056937
X+006437Y+057937
X+006437Y+058937
X+006437Y+059937
X+010437Y+059437
X+011437Y+059437
X+012437Y+059437
X+013437Y+059437
X+014437Y+059437
X+015437Y+059437
X+016437Y+059437
X+016437Y+058437
X+015437Y+058437
X+014437Y+058437
X+013437Y+058437
X+012437Y+058437
X+011437Y+058437
X+010437Y+058437
X+026437Y+058437
X+027437Y+058437
X+028437Y+058437
X+029437Y+058437
X+030437Y+058437
X+031437Y+058437
X+032437Y+058437
X+032437Y+059437
X+031437Y+059437
X+030437Y+059437
X+029437Y+059437
X+028437Y+059437
X+027437Y+059437
X+026437Y+059437
X+006437Y+041937
X+006437Y+040937
X+005437Y+040937
X+005437Y+041937
X+005437Y+035937
X+005437Y+034937
X+005437Y+033937
X+005437Y+032937
X+005437Y+031937
X+006437Y+031937
X+006437Y+032937
X+006437Y+033937
X+006437Y+034937
X+006437Y+035937
X+006437Y+026937
X+006437Y+025937
X+005437Y+025937
X+005437Y+026937
X+005437Y+024937
X+005437Y+023937
X+006437Y+023937
X+006437Y+024937
X+006437Y+022937
X+005437Y+022937
X+005437Y+021937
X+006437Y+021937
X+006437Y+020937
X+006437Y+019937
X+006437Y+018937
X+006437Y+017937
X+005437Y+017937
X+005437Y+018937
X+005437Y+019937
X+005437Y+020937
X+022937Y+006437
X+023937Y+006437
X+024937Y+006437
X+025937Y+006437
X+026937Y+006437
X+027937Y+006437
X+028937Y+006437
X+029937Y+006437
X+030937Y+006437
X+031937Y+006437
X+031937Y+005437
X+030937Y+005437
X+029937Y+005437
X+028937Y+005437
X+027937Y+005437
X+026937Y+005437
X+025937Y+005437
X+024937Y+005437
X+023937Y+005437
X+022937Y+005437
X+031437Y+010937
X+031437Y+011937
X+031437Y+012937
X+032437Y+012937
X+032437Y+011937
X+032437Y+010937
X+032437Y+013937
X+032437Y+014937
X+031437Y+014937
X+031437Y+013937
T06
X+012059Y+049749
X+011059Y+049749
X+011122Y+053937
X+012122Y+053937
X+021437Y+057437
X+022437Y+057437
X+024128Y+012309
X+025128Y+012309
X+024937Y+009437
X+023937Y+009437
T07
X+011902Y+012402
X+019972Y+012402
T00
M30
