M48
INCH
T01C0.0191
T02C0.032
T03C0.0354
T04C0.038
T05C0.0394
T06C0.0551
%
T01
X+013662Y+021941
X+014085Y+021454
X+014604Y+020967
X+015904Y+021454
X+016293Y+021941
X+019769Y+022298
X+020386Y+024832
X+020386Y+025969
X+022042Y+018433
X+022205Y+016452
X+014409Y+018433
X+010187Y+031620
X+017333Y+039448
X+015774Y+046431
X+015806Y+047438
X+017333Y+048445
X+010934Y+043930
T02
X+021437Y+027937
X+021437Y+025937
T03
X+022437Y+032437
X+022437Y+033437
X+022437Y+034437
X+022437Y+035437
X+022437Y+036437
X+022437Y+037437
X+022437Y+038437
X+022437Y+039437
X+022437Y+040437
X+022437Y+041437
X+022437Y+042437
X+022437Y+043437
X+022437Y+044437
X+022437Y+045437
X+022437Y+046437
X+022437Y+047437
X+022437Y+048437
X+022437Y+049437
X+022437Y+050437
X+022437Y+051437
X+016437Y+051437
X+016437Y+050437
X+016437Y+049437
X+016437Y+048437
X+016437Y+047437
X+016437Y+046437
X+016437Y+045437
X+016437Y+044437
X+016437Y+043437
X+016437Y+042437
X+016437Y+041437
X+016437Y+040437
X+016437Y+039437
X+016437Y+038437
X+016437Y+037437
X+016437Y+036437
X+016437Y+035437
X+016437Y+034437
X+016437Y+033437
X+016437Y+032437
X+013429Y+042437
X+013429Y+043437
X+013429Y+044437
X+013429Y+045437
X+013429Y+046437
X+013429Y+047437
X+013429Y+048437
X+013429Y+049437
X+013429Y+050437
X+013429Y+051437
X+010437Y+051437
X+010437Y+050437
X+010437Y+049437
X+010437Y+048437
X+010437Y+047437
X+010437Y+046437
X+010437Y+045437
X+010437Y+044437
X+010437Y+043437
X+010437Y+042437
T04
X+016937Y+007937
X+016937Y+008937
X+016937Y+009937
X+016937Y+010937
X+016937Y+011937
X+016937Y+012937
X+016937Y+013937
X+016937Y+014937
X+016937Y+015937
X+016937Y+016937
X+016937Y+017937
X+016937Y+018937
X+016937Y+019937
X+016937Y+020937
X+016937Y+021937
X+016937Y+022937
X+016937Y+023937
X+016937Y+024937
X+017937Y+024937
X+017937Y+023937
X+017937Y+022937
X+017937Y+021937
X+017937Y+020937
X+017937Y+019937
X+017937Y+018937
X+017937Y+017937
X+017937Y+016937
X+017937Y+015937
X+017937Y+014937
X+017937Y+013937
X+017937Y+012937
X+017937Y+011937
X+017937Y+010937
X+017937Y+009937
X+017937Y+008937
X+017937Y+007937
X+021437Y+005937
X+021437Y+010937
X+021437Y+012437
X+021437Y+017437
X+012437Y+018437
X+012437Y+019437
X+011437Y+019437
X+011437Y+018437
X+011437Y+020437
X+011437Y+021437
X+011437Y+022437
X+012437Y+022437
X+012437Y+021437
X+012437Y+020437
X+012437Y+023437
X+012437Y+024437
X+011437Y+024437
X+011437Y+023437
X+006437Y+022937
X+006437Y+023937
X+006437Y+024937
X+005437Y+024937
X+005437Y+023937
X+005437Y+022937
X+005437Y+021937
X+006437Y+021937
X+006437Y+025937
X+005437Y+025937
X+005437Y+030937
X+005437Y+031937
X+006437Y+031937
X+006437Y+030937
X+006437Y+032937
X+006437Y+033937
X+006437Y+034937
X+006437Y+035937
X+006437Y+036937
X+006437Y+037937
X+006437Y+038937
X+006437Y+039937
X+006437Y+040937
X+006437Y+041937
X+006437Y+042937
X+006437Y+043937
X+006437Y+044937
X+006437Y+045937
X+006437Y+046937
X+006437Y+047937
X+006437Y+048937
X+006437Y+049937
X+005437Y+049937
X+005437Y+048937
X+005437Y+047937
X+005437Y+046937
X+005437Y+045937
X+005437Y+044937
X+005437Y+043937
X+005437Y+042937
X+005437Y+041937
X+005437Y+040937
X+005437Y+039937
X+005437Y+038937
X+005437Y+037937
X+005437Y+036937
X+005437Y+035937
X+005437Y+034937
X+005437Y+033937
X+005437Y+032937
X+016937Y+026937
X+016937Y+025937
X+017937Y+025937
X+017937Y+026937
X+006437Y+016937
X+005437Y+016937
X+005437Y+015937
X+006437Y+015937
X+006437Y+014937
X+006437Y+013937
X+006437Y+012937
X+006437Y+011937
X+006437Y+010937
X+006437Y+009937
X+006437Y+008937
X+006437Y+007937
X+005437Y+007937
X+005437Y+008937
X+005437Y+009937
X+005437Y+010937
X+005437Y+011937
X+005437Y+012937
X+005437Y+013937
X+005437Y+014937
X+011437Y+011937
X+011437Y+010937
X+012437Y+010937
X+012437Y+009937
X+011437Y+009937
X+011437Y+008937
X+011437Y+007937
X+012437Y+007937
X+012437Y+008937
X+012437Y+011937
T05
X+020937Y+020937
X+021937Y+020937
X+021937Y+022937
X+020937Y+022937
X+013937Y+038437
X+013937Y+039437
X+011437Y+039437
X+010437Y+039437
T06
X+010937Y+034437
X+012496Y+032717
X+010937Y+030996
T00
M30
