G04 DipTrace 2.3.1.0*
%INVDG_Bottom.gbr*%
%MOIN*%
%ADD13C,0.013*%
%ADD14R,0.0591X0.0591*%
%ADD15C,0.0591*%
%ADD16C,0.06*%
%ADD17R,0.06X0.06*%
%ADD18C,0.048*%
%ADD19C,0.063*%
%ADD20R,0.063X0.063*%
%ADD21C,0.06*%
%ADD22R,0.0866X0.0866*%
%ADD23C,0.0866*%
%ADD24C,0.04*%
%FSLAX44Y44*%
G04*
G70*
G90*
G75*
G01*
%LNBottom*%
%LPD*%
X6437Y48937D2*
D13*
X7937D1*
X10437Y46437D1*
X6437Y47937D2*
X6937D1*
X10437Y44437D1*
X13662Y21941D2*
Y34572D1*
X12679Y35556D1*
Y48687D1*
X13429Y49437D1*
X13919Y49927D1*
Y52187D1*
X14179Y52447D1*
X22927D1*
X23187Y52187D1*
Y51187D1*
X22437Y50437D1*
X16297Y21937D2*
X16937D1*
X22437Y51437D2*
X21947Y51927D1*
X20251D1*
X19991Y51667D1*
X19731Y51927D1*
X14439D1*
X14179Y51667D1*
Y49187D1*
X13429Y48437D1*
X19991Y51667D2*
Y22310D1*
X19781D1*
X19769Y22298D1*
X14604Y20967D2*
Y46187D1*
X15348Y46930D1*
Y49667D1*
X15608Y49927D1*
X16927D1*
X17187Y50187D1*
Y50687D1*
X16437Y51437D1*
X14699D1*
X14439Y51177D1*
Y48447D1*
X13429Y47437D1*
X14085Y21454D2*
Y35533D1*
X12939Y36679D1*
Y45947D1*
X13429Y46437D1*
X15904Y21454D2*
X16412D1*
X16434Y21432D1*
X17442D1*
X17937Y20937D1*
X13429Y46437D2*
X14699Y47707D1*
Y50177D1*
X14959Y50437D1*
X16437D1*
Y45437D2*
X15519D1*
X15259Y45177D1*
Y20197D1*
X15519Y19937D1*
X16937D1*
X16437Y44437D2*
X17187Y43687D1*
Y43187D1*
X16927Y42927D1*
X15947D1*
X15687Y42667D1*
Y38187D1*
X15947Y37927D1*
X18432D1*
X18692Y37667D1*
Y20692D1*
X17937Y19937D1*
X16437Y43437D2*
X15947Y43927D1*
Y44667D1*
X16207Y44927D1*
X16667D1*
X16927Y45187D1*
Y45667D1*
X16667Y45927D1*
X15259D1*
X14999Y45667D1*
Y19197D1*
X15259Y18937D1*
X16937D1*
X16437Y42437D2*
X19352Y39522D1*
Y19197D1*
X19092Y18937D1*
X17937D1*
X10437Y51437D2*
X6192D1*
X5932Y51177D1*
Y12432D1*
X5437Y11937D1*
X10437Y42437D2*
Y39437D1*
X11437Y21437D2*
X11932Y20942D1*
Y12442D1*
X12437Y11937D1*
X10937Y30996D2*
Y21937D1*
X11437Y21437D1*
X10437Y39437D2*
Y38471D1*
X10309Y38344D1*
Y32775D1*
X10937Y32147D1*
Y30996D1*
X11437Y11937D2*
X11942Y11432D1*
X12672D1*
X12932Y11692D1*
Y21672D1*
X12672Y21932D1*
X11942D1*
X11437Y22437D1*
X21437Y17437D2*
X20911Y16911D1*
Y6463D1*
X21437Y5937D1*
X11437Y39437D2*
Y49445D1*
X13429Y51437D1*
X10937Y34437D2*
Y35705D1*
X11437Y36205D1*
Y39437D1*
Y22437D2*
X11932Y22932D1*
Y29741D1*
X11565Y30108D1*
Y33809D1*
X10937Y34437D1*
X17325Y48437D2*
X16437D1*
X15807Y47437D2*
X16437D1*
X20386Y25969D2*
Y45386D1*
X22437Y47437D1*
X16937Y24937D2*
X16191Y25683D1*
Y31162D1*
X16927Y31898D1*
Y33667D1*
X16667Y33927D1*
X16207D1*
X15947Y34187D1*
Y36947D1*
X16437Y37437D1*
Y36437D2*
X18432Y34442D1*
Y25432D1*
X17937Y24937D1*
X16437Y35437D2*
X17432Y34442D1*
Y24432D1*
X16937Y23937D1*
X11437Y18437D2*
X10187Y19687D1*
Y31620D1*
X16937Y22937D2*
X15779D1*
X15519Y23197D1*
Y32519D1*
X16437Y33437D1*
X17937Y22937D2*
X17442Y23432D1*
X16039D1*
X15779Y23692D1*
Y31779D1*
X16437Y32437D1*
X22437Y33437D2*
X22967Y32907D1*
Y18192D1*
X22707Y17932D1*
X20896D1*
X20396Y17432D1*
X17442D1*
X16937Y17937D1*
X22205Y16452D2*
X23226Y17473D1*
Y34648D1*
X22437Y35437D1*
X20386Y24832D2*
Y18197D1*
X20126Y17937D1*
X17937D1*
Y13937D2*
X17442Y14432D1*
X14669D1*
X14409Y14692D1*
Y18433D1*
X22042D2*
X22707Y19097D1*
Y28774D1*
X22437Y29044D1*
Y32437D1*
X17937Y12937D2*
X18692Y13692D1*
Y15172D1*
X18432Y15432D1*
X16442D1*
X16182Y15692D1*
Y18172D1*
X16442Y18432D1*
X17172D1*
X17432Y18692D1*
Y19172D1*
X17692Y19432D1*
X18692D1*
X18952Y19692D1*
Y38177D1*
X18692Y38437D1*
X16437D1*
X17333Y39448D2*
D3*
X17322Y39437D2*
X16437D1*
X10934Y43930D2*
X9770D1*
X9510Y43670D1*
Y11864D1*
X11437Y9937D1*
X11932Y10432D1*
X14343D1*
X15848Y11937D1*
X16937D1*
X15780Y46437D2*
X16437D1*
X21937Y22937D2*
Y20937D1*
X20937Y22937D2*
Y27437D1*
X21437Y27937D1*
Y44437D1*
X22437Y45437D1*
X20937Y20937D2*
X21707Y20167D1*
X22187D1*
X22447Y20427D1*
Y23579D1*
X21437Y24589D1*
Y25937D1*
X21872Y26372D1*
Y43872D1*
X22437Y44437D1*
X12496Y32717D2*
X13192Y32021D1*
Y14197D1*
X13452Y13937D1*
X16937D1*
D24*
X13662Y21941D3*
X16293D3*
X19769Y22298D3*
X14604Y20967D3*
X14085Y21454D3*
X15904D3*
X17333Y48445D3*
X15806Y47438D3*
X20386Y25969D3*
X10187Y31620D3*
X22205Y16452D3*
X20386Y24832D3*
X22042Y18433D3*
X14409D3*
X17333Y39448D3*
X10934Y43930D3*
X15774Y46431D3*
D14*
X22437Y32437D3*
D15*
Y33437D3*
Y34437D3*
Y35437D3*
Y36437D3*
Y37437D3*
Y38437D3*
Y39437D3*
Y40437D3*
Y41437D3*
Y42437D3*
Y43437D3*
Y44437D3*
Y45437D3*
Y46437D3*
Y47437D3*
Y48437D3*
Y49437D3*
Y50437D3*
Y51437D3*
X16437D3*
Y50437D3*
Y49437D3*
Y48437D3*
Y47437D3*
Y46437D3*
Y45437D3*
Y44437D3*
Y43437D3*
Y42437D3*
Y41437D3*
Y40437D3*
Y39437D3*
Y38437D3*
Y37437D3*
Y36437D3*
Y35437D3*
Y34437D3*
Y33437D3*
Y32437D3*
D14*
X10437Y51437D3*
D15*
Y50437D3*
Y49437D3*
Y48437D3*
Y47437D3*
Y46437D3*
Y45437D3*
Y44437D3*
Y43437D3*
Y42437D3*
X13429Y51437D3*
Y50437D3*
Y49437D3*
Y48437D3*
Y47437D3*
Y46437D3*
Y45437D3*
Y44437D3*
Y43437D3*
Y42437D3*
D16*
X16937Y7937D3*
Y8937D3*
Y9937D3*
Y10937D3*
Y11937D3*
Y12937D3*
Y13937D3*
Y14937D3*
Y15937D3*
Y16937D3*
Y17937D3*
Y18937D3*
Y19937D3*
Y20937D3*
Y21937D3*
Y22937D3*
Y23937D3*
Y24937D3*
Y25937D3*
D17*
Y26937D3*
D16*
X17937D3*
Y25937D3*
Y24937D3*
Y23937D3*
Y22937D3*
Y21937D3*
Y20937D3*
Y19937D3*
Y18937D3*
Y17937D3*
Y16937D3*
Y15937D3*
Y14937D3*
Y13937D3*
Y12937D3*
Y11937D3*
Y10937D3*
Y9937D3*
Y8937D3*
Y7937D3*
X5437Y49937D3*
Y48937D3*
Y47937D3*
Y46937D3*
Y45937D3*
Y44937D3*
Y43937D3*
Y42937D3*
Y41937D3*
Y40937D3*
Y39937D3*
Y38937D3*
Y37937D3*
Y36937D3*
Y35937D3*
Y34937D3*
Y33937D3*
Y32937D3*
Y31937D3*
D17*
Y30937D3*
D16*
X6437D3*
Y31937D3*
Y32937D3*
Y33937D3*
Y34937D3*
Y35937D3*
Y36937D3*
Y37937D3*
Y38937D3*
Y39937D3*
Y40937D3*
Y41937D3*
Y42937D3*
Y43937D3*
Y44937D3*
Y45937D3*
Y46937D3*
Y47937D3*
Y48937D3*
Y49937D3*
X5437Y21937D3*
X6437D3*
Y22937D3*
X5437D3*
X6437Y23937D3*
X5437D3*
X6437Y24937D3*
X5437D3*
Y25937D3*
D17*
X6437D3*
Y16937D3*
D16*
Y15937D3*
Y14937D3*
Y13937D3*
Y12937D3*
Y11937D3*
Y10937D3*
Y9937D3*
Y8937D3*
Y7937D3*
X5437D3*
Y8937D3*
Y9937D3*
Y10937D3*
Y11937D3*
Y12937D3*
Y13937D3*
Y14937D3*
Y15937D3*
Y16937D3*
D18*
X21437Y27937D3*
Y25937D3*
D19*
X20937Y20937D3*
D20*
X21937D3*
D19*
X20937Y22937D3*
D20*
X21937D3*
D19*
X11437Y39437D3*
D20*
X10437D3*
D19*
X13937D3*
D20*
Y38437D3*
D17*
X12437Y18437D3*
D16*
Y19437D3*
Y20437D3*
Y21437D3*
Y22437D3*
Y23437D3*
Y24437D3*
X11437D3*
Y23437D3*
Y22437D3*
Y21437D3*
Y20437D3*
Y19437D3*
Y18437D3*
X12437Y7937D3*
X11437D3*
Y8937D3*
X12437D3*
X11437Y9937D3*
X12437D3*
X11437Y10937D3*
X12437D3*
Y11937D3*
D17*
X11437D3*
D16*
X21437Y12437D3*
D21*
Y17437D3*
D16*
Y5937D3*
D21*
Y10937D3*
D22*
X10937Y34437D3*
D23*
X12496Y32717D3*
X10937Y30996D3*
M02*
