G04 DipTrace 2.3.1.0*
%INVDP_6847_Top.gbr*%
%MOIN*%
%ADD13C,0.013*%
%ADD14R,0.0591X0.0591*%
%ADD15C,0.0591*%
%ADD16C,0.06*%
%ADD17R,0.06X0.06*%
%ADD18C,0.05*%
%ADD19C,0.05*%
%ADD20C,0.063*%
%ADD21R,0.063X0.063*%
%ADD22C,0.04*%
%FSLAX44Y44*%
G04*
G70*
G90*
G75*
G01*
%LNTop*%
%LPD*%
X12393Y15241D2*
D13*
X19831D1*
X15940Y10135D2*
X20377D1*
X12384Y11134D2*
X13878Y9639D1*
Y7388D1*
X14138Y7128D1*
X18889D1*
X19384Y6634D1*
X18384Y7634D2*
X17889Y8128D1*
X14643D1*
X14384Y8388D1*
Y11134D1*
X16388Y10531D2*
X19118D1*
X19720Y11134D1*
X20384D1*
X27302Y20470D2*
Y21060D1*
X11457D1*
X9384Y23134D1*
X27887Y20470D2*
X39624D1*
X39884Y20730D1*
Y23149D1*
X27887Y18629D2*
Y20470D1*
X28884Y18626D2*
X29374Y19116D1*
X40624D1*
X40884Y19376D1*
Y23149D1*
X26295Y19528D2*
X25283Y20540D1*
X10547D1*
X10412Y20405D1*
X11387Y17092D2*
X29868D1*
X31362Y20892D2*
X39385D1*
X30875Y19528D2*
X28634D1*
X28374Y19268D1*
Y18267D1*
X28114Y18007D1*
X13088D1*
X12828Y18267D1*
Y19580D1*
X12816Y19593D1*
X31882Y17904D2*
X31724Y17747D1*
X11939D1*
X11679Y18007D1*
Y19728D1*
X11939Y19988D1*
X13395D1*
X37884Y29134D2*
Y30143D1*
X37624Y30403D1*
X7653D1*
X6384Y29134D1*
X32884Y18626D2*
Y17747D1*
X32624Y17487D1*
X7643D1*
X7384Y17747D1*
Y23134D1*
X26884Y18626D2*
Y20540D1*
X26624Y20800D1*
X10717D1*
X8384Y23134D1*
X27367Y16540D2*
X33387D1*
X35401Y18554D1*
X38865D1*
X24880Y13630D2*
X25876Y12634D1*
X33884D1*
X36384Y16634D2*
X38384D1*
X41934D1*
X42424Y17124D1*
X46126D1*
X46386Y16864D1*
X46645Y17124D1*
X49874D1*
X50384Y17634D1*
X11384Y29134D2*
X11874Y29624D1*
X15893D1*
X16384Y29134D1*
X33884Y12634D2*
X35884D1*
X46386Y16864D2*
Y16124D1*
X46876Y15634D1*
X19384Y29134D2*
X20134Y29884D1*
X28134D1*
X28884Y29134D1*
X17384D2*
X17874Y29624D1*
X18893D1*
X19384Y29134D1*
X16384D2*
X17384D1*
X35884Y11634D2*
X33884D1*
X14384Y29134D2*
X15384D1*
X38384Y17634D2*
X36384D1*
X30880Y10638D2*
X30389Y11128D1*
X21138D1*
X20878Y10868D1*
Y6314D1*
X20619Y6054D1*
X17963D1*
X17384Y6634D1*
X33884Y11634D2*
X32888Y10638D1*
X30880D1*
X45384Y27134D2*
X49384D1*
X36884Y29134D2*
Y27393D1*
X37143Y27134D1*
X45384D1*
X34884Y29134D2*
X35374Y29624D1*
X36393D1*
X36884Y29134D1*
X30884D2*
X31374Y28643D1*
X34393D1*
X34884Y29134D1*
X28893Y28200D2*
X29950D1*
X30884Y29134D1*
X15384D2*
X16317Y28200D1*
X28893D1*
X50384Y19634D2*
Y28101D1*
X50124Y28361D1*
X37634D1*
X37374Y28621D1*
Y29884D1*
X37114Y30143D1*
X10393D1*
X9384Y29134D1*
X29880Y13630D2*
X28880D1*
X25884Y18626D2*
X24916Y19593D1*
X17395D1*
X37884Y23149D2*
Y26122D1*
X37624Y26382D1*
X25223D1*
X7134D1*
X6874Y26122D1*
Y19624D1*
X6384Y19134D1*
X24884Y15634D2*
X25374Y16124D1*
X26114D1*
X26374Y15864D1*
Y15358D1*
X26634Y15098D1*
X27114D1*
X27374Y15358D1*
Y15864D1*
X27634Y16124D1*
X31114D1*
X31374Y15864D1*
Y14384D1*
X31634Y14124D1*
X45124D1*
X45384Y13864D1*
Y7634D1*
X23372Y26966D2*
X13888D1*
X23372Y25440D2*
X36624D1*
X36884Y25180D1*
Y23149D1*
X35884D2*
X34874Y24159D1*
X22397D1*
X8134D1*
X7874Y23899D1*
Y19643D1*
X8384Y19134D1*
X22397Y24952D2*
Y24159D1*
X32888Y11733D2*
X11643D1*
X11384Y11473D1*
Y7634D1*
X31362Y12155D2*
X10643D1*
X10384Y11895D1*
Y7634D1*
X26884Y15634D2*
Y16319D1*
X26624Y16578D1*
X7088D1*
X6828Y16319D1*
Y7189D1*
X7384Y6634D1*
X25884Y15634D2*
X25088Y14838D1*
X7643D1*
X7384Y14578D1*
Y7634D1*
X8398Y5237D2*
X32629D1*
X32888Y5497D1*
Y9167D1*
X27884Y15634D2*
Y14838D1*
X27624Y14578D1*
X8643D1*
X8384Y14319D1*
Y7634D1*
X31882Y5659D2*
X10358D1*
X9384Y6634D1*
X9373Y15663D2*
X23534D1*
X24021Y16150D1*
X24880Y10638D2*
X25955Y9562D1*
X39455D1*
X41384Y7634D1*
X18857Y25537D2*
X22532D1*
X22792Y25277D1*
Y24679D1*
X23052Y24419D1*
X36114D1*
X36374Y24159D1*
Y22814D1*
X36114Y22554D1*
X35479D1*
X34884Y23149D1*
X33895Y25959D2*
X20384D1*
X10867Y25927D2*
D3*
X20384Y25959D2*
X10899D1*
X10867Y25927D1*
X18384Y23134D2*
X19149Y23899D1*
X32134D1*
X32884Y23149D1*
X14375Y20145D2*
X18370D1*
X19384Y23134D2*
X19889Y23639D1*
X31393D1*
X31884Y23149D1*
X20384Y23134D2*
X20963Y22554D1*
X30288D1*
X30884Y23149D1*
X17883Y24563D2*
X21975D1*
X35877Y24823D2*
X26133D1*
X25384Y23134D2*
X28016D1*
X29868Y20892D2*
X28309D1*
X16388Y22451D2*
X16546Y22294D1*
X38114D1*
X38374Y22554D1*
Y23913D1*
X38634Y24173D1*
X42405D1*
X43884Y14634D2*
X35874D1*
X35614Y14893D1*
Y17884D1*
X35874Y18143D1*
X41114D1*
X41374Y18403D1*
Y23380D1*
X41114Y23639D1*
X39634D1*
X39374Y23380D1*
Y21580D1*
X39114Y21320D1*
X15643D1*
X15384Y21580D1*
Y23134D1*
X37793Y21899D2*
X15999D1*
X48884Y21634D2*
X48439Y21189D1*
X44143D1*
Y26382D1*
X43884Y26641D1*
X30106D1*
X29387Y27361D1*
X15156D1*
X13384Y29134D1*
X44143Y21189D2*
X43884Y20929D1*
Y18634D1*
X27880Y13630D2*
X28616Y12893D1*
X32697D1*
X32947Y13143D1*
X44619D1*
X44878Y12884D1*
Y7388D1*
X45138Y7128D1*
X46889D1*
X47384Y6634D1*
X25880Y13630D2*
X26880D1*
X27370Y14120D1*
X30389D1*
X30880Y13630D1*
X49384Y23634D2*
X47884D1*
X45884Y21634D1*
X50384Y11634D2*
X45903D1*
X45643Y11893D1*
Y14874D1*
X43884Y16634D1*
X50384Y14634D2*
X51134Y15384D1*
Y15864D1*
X50874Y16124D1*
X47386D1*
X46876Y16634D1*
X50384Y15634D2*
X49384Y14634D1*
X46876D1*
D22*
X19831Y15241D3*
X12393D3*
X20384Y10141D3*
X15934D3*
X16388Y10531D3*
X27302Y20470D3*
X27887D3*
X10412Y20405D3*
X26295Y19528D3*
X29868Y17092D3*
X11387D3*
X39385Y20892D3*
X31362D3*
X12816Y19593D3*
X30875Y19528D3*
X13400Y19983D3*
X31882Y17904D3*
X38865Y18554D3*
X27367Y16540D3*
X28893Y28200D3*
X17395Y19593D3*
X25223Y26382D3*
X13888Y26966D3*
X23372Y25440D3*
Y26966D3*
X22397Y24952D3*
X32888Y11733D3*
X31362Y12155D3*
X32888Y9167D3*
X8398Y5237D3*
X31882Y5659D3*
X24021Y16150D3*
X9373Y15663D3*
X18857Y25537D3*
X20384Y25959D3*
X10867Y25927D3*
X33895Y25959D3*
X18370Y20145D3*
X14375D3*
X21975Y24563D3*
X17883D3*
X26133Y24823D3*
X35877D3*
X28016Y23134D3*
X28309Y20892D3*
X29868D3*
X42405Y24173D3*
X16388Y22451D3*
X15999Y21899D3*
X37793D3*
D14*
X6384Y23134D3*
D15*
X7384D3*
X8384D3*
X9384D3*
X10384D3*
X11384D3*
X12384D3*
X13384D3*
X14384D3*
X15384D3*
X16384D3*
X17384D3*
X18384D3*
X19384D3*
X20384D3*
X21384D3*
X22384D3*
X23384D3*
X24384D3*
X25384D3*
Y29134D3*
X24384D3*
X23384D3*
X22384D3*
X21384D3*
X20384D3*
X19384D3*
X18384D3*
X17384D3*
X16384D3*
X15384D3*
X14384D3*
X13384D3*
X12384D3*
X11384D3*
X10384D3*
X9384D3*
X8384D3*
X7384D3*
X6384D3*
D16*
X7384Y7634D3*
X8384D3*
X9384D3*
X10384D3*
X11384D3*
X12384D3*
X13384D3*
X14384D3*
X15384D3*
X16384D3*
X17384D3*
X18384D3*
X19384D3*
X20384D3*
X21384D3*
X22384D3*
X23384D3*
X24384D3*
X25384D3*
D17*
X26384D3*
D16*
Y6634D3*
X25384D3*
X24384D3*
X23384D3*
X22384D3*
X21384D3*
X20384D3*
X19384D3*
X18384D3*
X17384D3*
X16384D3*
X15384D3*
X14384D3*
X13384D3*
X12384D3*
X11384D3*
X10384D3*
X9384D3*
X8384D3*
X7384D3*
D17*
X40384D3*
D16*
X41384D3*
X42384D3*
X43384D3*
X44384D3*
X45384D3*
X46384D3*
X47384D3*
X48384D3*
X49384D3*
Y7634D3*
X48384D3*
X47384D3*
X46384D3*
X45384D3*
X44384D3*
X43384D3*
X42384D3*
X41384D3*
X40384D3*
X35384D3*
Y6634D3*
X34384D3*
Y7634D3*
X33384Y6634D3*
Y7634D3*
X32384Y6634D3*
Y7634D3*
X31384D3*
D17*
Y6634D3*
D14*
X28884Y23149D3*
D15*
X29884D3*
X30884D3*
X31884D3*
X32884D3*
X33884D3*
X34884D3*
X35884D3*
X36884D3*
X37884D3*
X38884D3*
X39884D3*
X40884D3*
X41884D3*
Y29134D3*
X40884D3*
X39884D3*
X38884D3*
X37884D3*
X36884D3*
X35884D3*
X34884D3*
X33884D3*
X32884D3*
X31884D3*
X30884D3*
X29884D3*
X28884D3*
D18*
X6384Y16134D3*
D19*
Y19134D3*
D18*
X8384Y16134D3*
D19*
Y19134D3*
D18*
X10384Y16134D3*
D19*
Y19134D3*
D18*
X12384Y16134D3*
D19*
Y19134D3*
D18*
X14384Y16134D3*
D19*
Y19134D3*
D18*
X16384Y16134D3*
D19*
Y19134D3*
D18*
X18384Y16134D3*
D19*
Y19134D3*
D18*
X20384Y16134D3*
D19*
Y19134D3*
D18*
X12384Y11134D3*
D19*
Y14134D3*
D18*
X14384Y11134D3*
D19*
Y14134D3*
D18*
X16384Y11134D3*
D19*
Y14134D3*
D18*
X18384Y11134D3*
D19*
Y14134D3*
D18*
X20384Y11134D3*
D19*
Y14134D3*
D14*
X24884Y15634D3*
D15*
X25884D3*
X26884D3*
X27884D3*
X28884D3*
X29884D3*
X30884D3*
X31884D3*
X32884D3*
X33884D3*
X24884Y18626D3*
X25884D3*
X26884D3*
X27884D3*
X28884D3*
X29884D3*
X30884D3*
X31884D3*
X32884D3*
X33884D3*
D14*
X24880Y10638D3*
D15*
X25880D3*
X26880D3*
X27880D3*
X28880D3*
X29880D3*
X30880D3*
Y13630D3*
X29880D3*
X28880D3*
X27880D3*
X26880D3*
X25880D3*
X24880D3*
D14*
X49384Y23634D3*
D15*
X45407D3*
D20*
X38384Y17634D3*
D21*
Y16634D3*
D20*
X36384Y17634D3*
D21*
Y16634D3*
D20*
X35884Y12634D3*
D21*
Y11634D3*
D20*
X33884Y12634D3*
D21*
Y11634D3*
D14*
X43884Y18634D3*
D15*
Y17634D3*
Y16634D3*
Y15634D3*
Y14634D3*
Y13634D3*
Y12634D3*
X46876D3*
Y13634D3*
Y14634D3*
Y15634D3*
Y16634D3*
Y17634D3*
Y18634D3*
D20*
X49384Y26134D3*
D21*
Y27134D3*
D15*
X50384Y19634D3*
Y18634D3*
Y17634D3*
Y16634D3*
Y15634D3*
Y14634D3*
Y13634D3*
Y12634D3*
Y11634D3*
D14*
Y10634D3*
D20*
X45384Y26134D3*
D21*
Y27134D3*
D18*
X48884Y21634D3*
D19*
X45884D3*
M02*
