M48
INCH
T01C0.0191
T02C0.022
T03C0.0354
T04C0.038
T05C0.0394
%
T01
X+019831Y+015241
X+024021Y+016150
X+027367Y+016540
X+029868Y+017092
X+031882Y+017904
X+030875Y+019528
X+031362Y+020892
X+029868Y+020892
X+028309Y+020892
X+027887Y+020470
X+027302Y+020470
X+026295Y+019528
X+028016Y+023134
X+026133Y+024823
X+025223Y+026382
X+023372Y+026966
X+023372Y+025440
X+022397Y+024952
X+021975Y+024563
X+020384Y+025959
X+018857Y+025537
X+017883Y+024563
X+016388Y+022451
X+015999Y+021899
X+014375Y+020145
X+013400Y+019983
X+012816Y+019593
X+010412Y+020405
X+011387Y+017092
X+012393Y+015241
X+009373Y+015663
X+015934Y+010141
X+016388Y+010531
X+020384Y+010141
X+017395Y+019593
X+018370Y+020145
X+013888Y+026966
X+010867Y+025927
X+028893Y+028200
X+033895Y+025959
X+035877Y+024823
X+037793Y+021899
X+039385Y+020892
X+038865Y+018554
X+042405Y+024173
X+032888Y+011733
X+031362Y+012155
X+032888Y+009167
X+031882Y+005659
X+008398Y+005237
T02
X+006384Y+016134
X+008384Y+016134
X+010384Y+016134
X+012384Y+016134
X+014384Y+016134
X+016384Y+016134
X+018384Y+016134
X+020384Y+016134
X+020384Y+014134
X+018384Y+014134
X+016384Y+014134
X+014384Y+014134
X+012384Y+014134
X+012384Y+011134
X+014384Y+011134
X+016384Y+011134
X+018384Y+011134
X+020384Y+011134
X+020384Y+019134
X+018384Y+019134
X+016384Y+019134
X+014384Y+019134
X+012384Y+019134
X+010384Y+019134
X+008384Y+019134
X+006384Y+019134
X+045884Y+021634
X+048884Y+021634
T03
X+006384Y+023134
X+007384Y+023134
X+008384Y+023134
X+009384Y+023134
X+010384Y+023134
X+011384Y+023134
X+012384Y+023134
X+013384Y+023134
X+014384Y+023134
X+015384Y+023134
X+016384Y+023134
X+017384Y+023134
X+018384Y+023134
X+019384Y+023134
X+020384Y+023134
X+021384Y+023134
X+022384Y+023134
X+023384Y+023134
X+024384Y+023134
X+025384Y+023134
X+028884Y+023149
X+029884Y+023149
X+030884Y+023149
X+031884Y+023149
X+032884Y+023149
X+033884Y+023149
X+034884Y+023149
X+035884Y+023149
X+036884Y+023149
X+037884Y+023149
X+038884Y+023149
X+039884Y+023149
X+040884Y+023149
X+041884Y+023149
X+045407Y+023634
X+049384Y+023634
X+050384Y+019634
X+050384Y+018634
X+050384Y+017634
X+050384Y+016634
X+050384Y+015634
X+050384Y+014634
X+050384Y+013634
X+050384Y+012634
X+050384Y+011634
X+050384Y+010634
X+046876Y+012634
X+046876Y+013634
X+046876Y+014634
X+046876Y+015634
X+046876Y+016634
X+046876Y+017634
X+046876Y+018634
X+043884Y+018634
X+043884Y+017634
X+043884Y+016634
X+043884Y+015634
X+043884Y+014634
X+043884Y+013634
X+043884Y+012634
X+033884Y+015634
X+032884Y+015634
X+031884Y+015634
X+030884Y+015634
X+029884Y+015634
X+028884Y+015634
X+027884Y+015634
X+026884Y+015634
X+025884Y+015634
X+024884Y+015634
X+024880Y+013630
X+025880Y+013630
X+026880Y+013630
X+027880Y+013630
X+028880Y+013630
X+029880Y+013630
X+030880Y+013630
X+030880Y+010638
X+029880Y+010638
X+028880Y+010638
X+027880Y+010638
X+026880Y+010638
X+025880Y+010638
X+024880Y+010638
X+024884Y+018626
X+025884Y+018626
X+026884Y+018626
X+027884Y+018626
X+028884Y+018626
X+029884Y+018626
X+030884Y+018626
X+031884Y+018626
X+032884Y+018626
X+033884Y+018626
X+033884Y+029134
X+032884Y+029134
X+031884Y+029134
X+030884Y+029134
X+029884Y+029134
X+028884Y+029134
X+025384Y+029134
X+024384Y+029134
X+023384Y+029134
X+022384Y+029134
X+021384Y+029134
X+020384Y+029134
X+019384Y+029134
X+018384Y+029134
X+017384Y+029134
X+016384Y+029134
X+015384Y+029134
X+014384Y+029134
X+013384Y+029134
X+012384Y+029134
X+011384Y+029134
X+010384Y+029134
X+009384Y+029134
X+008384Y+029134
X+007384Y+029134
X+006384Y+029134
X+034884Y+029134
X+035884Y+029134
X+036884Y+029134
X+037884Y+029134
X+038884Y+029134
X+039884Y+029134
X+040884Y+029134
X+041884Y+029134
T04
X+007384Y+007634
X+008384Y+007634
X+009384Y+007634
X+010384Y+007634
X+011384Y+007634
X+012384Y+007634
X+013384Y+007634
X+014384Y+007634
X+015384Y+007634
X+016384Y+007634
X+017384Y+007634
X+018384Y+007634
X+019384Y+007634
X+020384Y+007634
X+021384Y+007634
X+022384Y+007634
X+023384Y+007634
X+024384Y+007634
X+025384Y+007634
X+026384Y+007634
X+026384Y+006634
X+025384Y+006634
X+024384Y+006634
X+023384Y+006634
X+022384Y+006634
X+021384Y+006634
X+020384Y+006634
X+019384Y+006634
X+018384Y+006634
X+017384Y+006634
X+016384Y+006634
X+015384Y+006634
X+014384Y+006634
X+013384Y+006634
X+012384Y+006634
X+011384Y+006634
X+010384Y+006634
X+009384Y+006634
X+008384Y+006634
X+007384Y+006634
X+031384Y+006634
X+032384Y+006634
X+033384Y+006634
X+034384Y+006634
X+035384Y+006634
X+035384Y+007634
X+034384Y+007634
X+033384Y+007634
X+032384Y+007634
X+031384Y+007634
X+040384Y+007634
X+041384Y+007634
X+042384Y+007634
X+043384Y+007634
X+044384Y+007634
X+045384Y+007634
X+046384Y+007634
X+047384Y+007634
X+048384Y+007634
X+049384Y+007634
X+049384Y+006634
X+048384Y+006634
X+047384Y+006634
X+046384Y+006634
X+045384Y+006634
X+044384Y+006634
X+043384Y+006634
X+042384Y+006634
X+041384Y+006634
X+040384Y+006634
T05
X+038384Y+017634
X+038384Y+016634
X+036384Y+016634
X+036384Y+017634
X+035884Y+012634
X+035884Y+011634
X+033884Y+011634
X+033884Y+012634
X+045384Y+026134
X+045384Y+027134
X+049384Y+027134
X+049384Y+026134
T00
M30
